<?xml version="1.0" encoding="utf-8"?><svg viewBox="0 0 693.21 220.6" xmlns="http://www.w3.org/2000/svg" xmlns:xlink="http://www.w3.org/1999/xlink"><style>:root>svg{display:none}:root>svg:target{display:block}</style><svg fill="none" viewBox="0 0 14 14" id="arrow-icon" xmlns="http://www.w3.org/2000/svg"><path d="M13 .957A1 1 0 0011.956 0L2.965.39a1 1 0 10.087 1.999l7.992-.348.348 7.993a1 1 0 101.998-.087L13 .957zM1.736 13.676l11-12L11.263.324l-11 12 1.474 1.352z" fill="#fff"/></svg><svg fill="none" viewBox="0 0 22 18" id="email-icon" xmlns="http://www.w3.org/2000/svg"><rect x="1" y="1" width="20" height="16" rx="5" stroke="#005147" stroke-width="1.5"/><path opacity=".3" d="M5 6l4.8 3.6a2 2 0 002.4 0L17 6" stroke="#005147" stroke-width="1.5" stroke-linecap="round" stroke-linejoin="round"/></svg><svg fill="none" viewBox="0 0 18 22" id="map-icon" xmlns="http://www.w3.org/2000/svg"><path d="M17 9.417C17 14.845 10.6 20.5 9 20.5c-1.6 0-8-5.655-8-11.083C1 5.044 4.582 1.5 9 1.5s8 3.544 8 7.917z" stroke="#005147" stroke-width="1.5"/><circle opacity=".3" cx="3" cy="3" r="3" transform="matrix(-1 0 0 1 12 6)" stroke="#005147" stroke-width="1.5"/></svg><svg fill="none" viewBox="0 0 20 20" id="modal-close-icon" xmlns="http://www.w3.org/2000/svg"><g clip-path="url(#da)" fill="#000"><path d="M1.896 19.875A1.894 1.894 0 01.55 19.42a1.894 1.894 0 010-2.671L16.634.665A1.894 1.894 0 0119.4 3.242L3.222 19.42a1.894 1.894 0 01-1.326.455z"/><path d="M17.96 19.875a1.895 1.895 0 01-1.326-.55L.551 3.242A1.894 1.894 0 013.22.57L19.4 16.653a1.894 1.894 0 010 2.766 1.895 1.895 0 01-1.44.455z"/></g><defs><clipPath id="da"><path fill="#fff" d="M0 0h20v20H0z"/></clipPath></defs></svg><svg fill="none" viewBox="0 0 22 23" id="mouse-icon" xmlns="http://www.w3.org/2000/svg"><path d="M11 0C6.823 0 3.437 3.54 3.437 7.906v7.188C3.438 19.46 6.824 23 11 23s7.563-3.54 7.563-7.906V7.906C18.563 3.54 15.177 0 11 0zm6.188 15.094c0 3.567-2.776 6.469-6.188 6.469s-6.188-2.902-6.188-6.47V7.907c0-3.567 2.776-6.468 6.188-6.468s6.188 2.901 6.188 6.468v7.188zM11 3.594c-1.14 0-2.063.965-2.063 2.156v2.875c0 1.191.924 2.156 2.063 2.156 1.14 0 2.063-.965 2.063-2.156V5.75c0-1.191-.924-2.156-2.063-2.156zm.688 5.031c0 .397-.309.719-.688.719-.38 0-.688-.322-.688-.719V5.75c0-.397.309-.719.688-.719.38 0 .688.322.688.719v2.875z" fill="#005147"/></svg><svg fill="none" viewBox="0 0 20 21" id="phone-icon" xmlns="http://www.w3.org/2000/svg"><path d="M17.062 18.97c-1.954 1.954-6.96.117-11.179-4.102-4.22-4.22-6.056-9.225-4.101-11.18l1.286-1.286c.889-.888 2.353-.865 3.27.052L8.33 4.448c.917.917.94 2.38.052 3.269l-.276.276a1.333 1.333 0 00-.08 1.794c.429.52.892 1.04 1.395 1.542.502.502 1.021.966 1.542 1.396.54.445 1.314.399 1.793-.081l.277-.277c.888-.888 2.352-.864 3.27.053l1.992 1.993c.918.917.941 2.381.053 3.27l-1.287 1.286z" stroke="#005147" stroke-width="1.5"/><path opacity=".3" d="M15.627 7.75a4.983 4.983 0 00-1.091-1.635A4.986 4.986 0 0013 5.066m0-3.403a9.959 9.959 0 013.657 2.33 9.956 9.956 0 012.366 3.758" stroke="#005147" stroke-width="1.5" stroke-linecap="round"/></svg><svg fill="none" viewBox="0 0 644 150" id="projects-text-icon" xmlns="http://www.w3.org/2000/svg"><path d="M8.704 120h-1v1h1v-1zm0-90.88v-1h-1v1h1zm50.688 2.688l-.447.894.012.007.013.006.422-.907zm9.472 7.04l-.749.663.005.005.005.006.739-.674zm6.144 9.856l.93-.368-.93.368zm-1.536 26.112l-.885-.466-.003.006-.003.006.891.454zM63.36 86.336l.562.827.004-.002-.566-.825zm-33.664 4.352v-1h-1v1h1zm0 29.312v1h1v-1h-1zm0-47.616h-1v1h1v-1zm24.96-5.632l.91.414-.91-.414zM54.4 52.928l-.894.447.012.025.014.024.868-.496zm-3.712-4.096l-.507.862.01.006.011.006.486-.874zm-20.992-1.28v-1h-1v1h1zM9.704 120V29.12h-2V120h2zm-1-89.88h38.784v-2H8.704v2zm38.784 0c4.21 0 8.023.866 11.457 2.582l.894-1.788c-3.734-1.868-7.857-2.794-12.351-2.794v2zm11.482 2.595c3.547 1.65 6.593 3.914 9.145 6.796l1.498-1.326c-2.738-3.091-6.007-5.52-9.8-7.284l-.843 1.814zm9.155 6.807a30.925 30.925 0 015.953 9.55l1.86-.736a32.931 32.931 0 00-6.335-10.162l-1.478 1.348zm5.953 9.55c1.406 3.555 2.106 7.185 2.106 10.896h2c0-3.97-.75-7.849-2.246-11.632l-1.86.736zm2.106 10.896c0 5.04-1.196 9.83-3.597 14.382l1.77.932c2.549-4.834 3.827-9.943 3.827-15.314h-2zm-3.603 14.394c-2.314 4.544-5.572 8.257-9.787 11.15l1.132 1.648c4.49-3.08 7.972-7.048 10.437-11.89l-1.782-.908zM62.798 85.51c-4.079 2.773-8.953 4.179-14.67 4.179v2c6.06 0 11.34-1.496 15.794-4.525l-1.124-1.654zm-14.67 4.179H29.696v2h18.432v-2zm-19.432 1V120h2V90.688h-2zm1 28.312H8.704v2h20.992v-2zm0-45.616h17.152v-2H29.696v2zm17.152 0c1.828 0 3.518-.533 5.047-1.584l-1.134-1.648c-1.202.827-2.499 1.232-3.913 1.232v2zm5.047-1.584c1.547-1.064 2.761-2.632 3.671-4.634l-1.82-.828c-.797 1.752-1.802 3-2.985 3.814l1.133 1.648zm3.671-4.634c.929-2.042 1.37-4.497 1.37-7.326h-2c0 2.632-.412 4.786-1.19 6.498l1.82.828zm1.37-7.326c0-2.93-.532-5.42-1.668-7.408l-1.736.992c.912 1.596 1.404 3.713 1.404 6.416h2zm-1.642-7.36c-1.01-2.021-2.376-3.553-4.12-4.522l-.972 1.748c1.328.738 2.437 1.936 3.304 3.67l1.788-.895zm-4.099-4.51c-1.598-.94-3.308-1.418-5.115-1.418v2c1.436 0 2.798.375 4.101 1.142l1.014-1.724zm-5.115-1.418H29.696v2H46.08v-2zm-17.384 1v24.832h2V47.552h-2zM88.454 120h-1v1h1v-1zm0-90.88v-1h-1v1h1zm52.736 2.688l-.447.894.012.007.013.006.422-.907zm9.472 7.04l-.749.663.005.005.005.006.739-.674zm6.144 9.856l-.93.368.004.009.004.01.922-.387zm.512 21.888l.941.338.003-.008-.944-.33zm-5.12 9.088l.766.643.005-.006.005-.006-.776-.631zm-7.936 6.528l-.486-.874-.897.499.522.884.861-.509zM164.23 120v1h1.752l-.891-1.509-.861.509zm-23.168 0l-.86.511.291.489h.569v-1zm-17.408-29.312l.86-.51-.291-.49h-.569v1zm-14.208 0v-1h-1v1h1zm0 29.312v1h1v-1h-1zm0-47.616h-1v1h1v-1zm23.68-1.536l.625.78.006-.004-.631-.776zm3.328-4.48l-.91-.414.91.414zm-.256-12.928l-.894.447.012.025.014.024.868-.496zm-3.584-4.352l-.577.817.577-.817zm-23.168-1.536v-1h-1v1h1zM89.454 120V29.12h-2V120h2zm-1-89.88h40.96v-2h-40.96v2zm40.96 0c4.122 0 7.893.864 11.329 2.582l.894-1.788c-3.732-1.866-7.811-2.794-12.223-2.794v2zm11.354 2.595c3.547 1.65 6.592 3.914 9.145 6.796l1.498-1.326c-2.738-3.091-6.007-5.52-9.799-7.284l-.844 1.814zm9.155 6.807a30.925 30.925 0 015.953 9.55l1.86-.736a32.937 32.937 0 00-6.335-10.162l-1.478 1.348zm5.961 9.568c1.487 3.554 2.226 7.136 2.226 10.75h2c0-3.895-.797-7.738-2.382-11.522l-1.844.772zm2.226 10.75c0 3.646-.58 7.118-1.736 10.422l1.888.66c1.233-3.523 1.848-7.22 1.848-11.082h-2zm-1.733 10.414a29.83 29.83 0 01-4.955 8.795l1.552 1.262a31.81 31.81 0 005.285-9.381l-1.882-.676zm-4.945 8.783a27.025 27.025 0 01-7.656 6.297l.972 1.748a29.006 29.006 0 008.216-6.76l-1.532-1.285zm-8.031 7.68l19.968 33.792 1.722-1.018-19.968-33.792-1.722 1.018zM164.23 119h-23.168v2h23.168v-2zm-22.308.489l-17.408-29.312-1.72 1.022 17.408 29.312 1.72-1.022zm-18.268-29.801h-14.208v2h14.208v-2zm-15.208 1V120h2V90.688h-2zm1 28.312H88.454v2h20.992v-2zm0-45.616h19.2v-2h-19.2v2zm19.2 0c1.924 0 3.64-.583 5.105-1.755l-1.25-1.562c-1.095.876-2.365 1.317-3.855 1.317v2zm5.111-1.76c1.504-1.222 2.701-2.848 3.607-4.842l-1.82-.828c-.801 1.76-1.822 3.122-3.049 4.118l1.262 1.552zm3.607-4.842c.923-2.03 1.37-4.353 1.37-6.942h-2c0 2.36-.407 4.39-1.19 6.114l1.82.828zm1.37-6.942c0-2.614-.542-4.926-1.668-6.896l-1.736.992c.922 1.614 1.404 3.569 1.404 5.904h2zm-1.642-6.847c-.999-1.998-2.293-3.587-3.901-4.722l-1.154 1.634c1.294.913 2.388 2.226 3.267 3.982l1.788-.894zm-3.901-4.722c-1.603-1.131-3.337-1.719-5.185-1.719v2c1.395 0 2.733.436 4.031 1.353l1.154-1.634zm-5.185-1.719h-18.56v2h18.56v-2zm-19.56 1v24.832h2V47.552h-2zm86.131 69.376l-.436.9.008.004.009.004.419-.908zm-14.208-10.496l-.749.663.007.007.007.008.735-.678zm-9.088-14.848l-.933.359.002.005.931-.364zm.128-34.432l-.921-.389-.005.013.926.376zm9.472-14.592l-.728-.685h-.001l.729.685zm14.464-10.24l-.407-.913.407.913zm36.48.256l-.436.9.008.004.009.004.419-.908zm14.208 10.496l-.749.663.007.008.742-.671zm9.216 14.976l-.933.359.002.005.931-.364zm-.128 34.048l-.926-.376.926.376zm-9.472 14.72l.721.693.007-.008-.728-.685zm-14.464 10.24l.413.911.006-.003-.419-.908zm-40.192-32.128l-.956.294.002.007.954-.301zm4.48 8.704l-.794.608.007.009.006.008.781-.625zm28.288 6.144l.457.889.01-.005.01-.005-.477-.879zm7.424-6.4l.803.596-.803-.596zm4.352-8.832l-.956-.294-.002.008-.003.008.961.278zm0-20.224l-.954.301.954-.301zm-4.608-8.704l-.791.612.005.006.005.007.781-.625zm-7.552-6.144l-.437.9.437-.9zm-20.608.128l-.457-.89-.011.006.468.884zm-7.424 6.272l-.791-.612-.003.004.794.608zm-4.48 8.832l-.956-.294-.002.008-.003.008.961.278zm22.272 55.064c-6.699 0-12.74-1.255-18.141-3.748l-.838 1.816c5.693 2.627 12.025 3.932 18.979 3.932v-2zm-18.124-3.74c-5.351-2.592-9.985-6.016-13.909-10.274l-1.47 1.356c4.097 4.446 8.936 8.019 14.507 10.718l.872-1.8zm-13.895-10.259c-3.848-4.35-6.815-9.198-8.906-14.549l-1.862.728c2.176 5.572 5.268 10.622 9.27 15.147l1.498-1.326zm-8.904-14.544c-2.089-5.433-3.133-11.029-3.133-16.793h-2c0 6.012 1.09 11.85 3.267 17.511l1.866-.718zm-3.133-16.793c0-5.933 1.086-11.565 3.254-16.904l-1.852-.752c-2.269 5.584-3.402 11.472-3.402 17.656h2zm3.249-16.891c2.259-5.354 5.351-10.117 9.28-14.296l-1.458-1.37c-4.093 4.354-7.315 9.319-9.664 14.888l1.842.778zm9.279-14.296c4.004-4.254 8.716-7.59 14.143-10.012l-.814-1.826c-5.666 2.527-10.597 6.018-14.785 10.468l1.456 1.37zm14.143-10.012c5.409-2.413 11.327-3.625 17.769-3.625v-2c-6.699 0-12.898 1.262-18.583 3.799l.814 1.826zm17.769-3.625c6.607 0 12.557 1.296 17.868 3.868l.872-1.8c-5.612-2.718-11.865-4.068-18.74-4.068v2zm17.885 3.876c5.425 2.504 10.047 5.92 13.878 10.25l1.498-1.325c-4.02-4.544-8.869-8.125-14.538-10.741l-.838 1.816zm13.885 10.258a46.684 46.684 0 019.025 14.665l1.866-.718a48.679 48.679 0 00-9.407-15.288l-1.484 1.341zm9.027 14.67c2.089 5.348 3.131 10.814 3.131 16.404h2c0-5.845-1.091-11.558-3.269-17.132l-1.862.728zm3.131 16.404c0 5.933-1.086 11.565-3.254 16.904l1.852.752c2.269-5.584 3.402-11.472 3.402-17.656h-2zm-3.254 16.904c-2.172 5.345-5.262 10.147-9.274 14.411l1.456 1.37c4.18-4.44 7.405-9.451 9.67-15.029l-1.852-.752zm-9.267 14.403c-4.007 4.174-8.725 7.516-14.162 10.025l.838 1.816c5.656-2.611 10.581-6.096 14.766-10.455l-1.442-1.386zm-14.156 10.022c-5.319 2.411-11.193 3.623-17.635 3.623v2c6.699 0 12.858-1.262 18.461-3.801l-.826-1.822zm-42.315-41.457c0 3.598.527 7.11 1.58 10.534l1.912-.588a33.61 33.61 0 01-1.492-9.946h-2zm1.582 10.541c1.058 3.348 2.603 6.354 4.64 9.011l1.588-1.216c-1.888-2.463-3.33-5.26-4.32-8.397l-1.908.602zm4.653 9.028c2.138 2.672 4.767 4.81 7.876 6.408l.914-1.778c-2.864-1.474-5.27-3.432-7.228-5.88l-1.562 1.25zm7.876 6.408c3.147 1.619 6.721 2.415 10.697 2.415v-2c-3.704 0-6.957-.74-9.783-2.193l-.914 1.778zm10.697 2.415c4.139 0 7.8-.793 10.953-2.415l-.914-1.778c-2.821 1.45-6.157 2.193-10.039 2.193v2zm10.973-2.425c3.111-1.689 5.698-3.917 7.75-6.683l-1.606-1.192c-1.873 2.525-4.235 4.563-7.098 6.117l.954 1.758zm7.75-6.683c2.036-2.744 3.539-5.796 4.51-9.15l-1.922-.556c-.906 3.131-2.304 5.967-4.194 8.514l1.606 1.192zm4.505-9.134a35.196 35.196 0 001.58-10.406h-2c0 3.312-.496 6.583-1.492 9.818l1.912.588zm1.58-10.406c0-3.598-.527-7.07-1.582-10.413l-1.908.602c.993 3.143 1.49 6.412 1.49 9.811h2zm-1.582-10.413c-1.06-3.356-2.653-6.368-4.781-9.028l-1.562 1.25c1.968 2.46 3.447 5.25 4.435 8.38l1.908-.602zm-4.771-9.015a22.089 22.089 0 00-7.906-6.431l-.874 1.798a20.079 20.079 0 017.198 5.857l1.582-1.224zm-7.906-6.431c-3.14-1.526-6.663-2.277-10.549-2.277v2c3.623 0 6.841.7 9.675 2.075l.874-1.799zm-10.549-2.277c-4.139 0-7.8.793-10.953 2.415l.914 1.778c2.821-1.45 6.157-2.193 10.039-2.193v-2zm-10.964 2.42c-3.029 1.604-5.613 3.788-7.747 6.544l1.582 1.224c1.962-2.535 4.328-4.532 7.101-6l-.936-1.768zm-7.75 6.548c-2.04 2.661-3.586 5.713-4.642 9.146l1.912.588c.992-3.223 2.433-6.06 4.318-8.518l-1.588-1.216zm-4.647 9.162a36.73 36.73 0 00-1.447 10.262h2c0-3.32.456-6.555 1.369-9.706l-1.922-.556zm74.341 34.198l.573-.82-1.169-.817-.37 1.378.966.259zm5.376 2.56l-.376.926.017.007.017.007.342-.94zm17.152 0l-.463-.887-.008.005-.008.004.479.878zm4.352-4.608l-.902-.433-.003.008-.004.008.909.417zm2.048-8.192l.995.102v-.002l-.995-.1zm.512-59.264v-1h-1v1h1zm20.992 0h1v-1h-1v1zm-1.152 64.896l.991.135-.991-.135zm-4.736 14.72l-.868-.496-.004.006.872.49zm-10.496 9.472l.414.91.007-.003.006-.003-.427-.904zM268.597 120l-.278.961.278-.961zm-8.96-4.224l-.966-.259-.183.682.582.401.567-.824zm4.035-16.333c.959.672 2.855 1.564 5.573 2.667l.752-1.852c-2.744-1.115-4.432-1.93-5.179-2.453l-1.146 1.638zm5.607 2.681c2.95 1.072 6.355 1.596 10.198 1.596v-2c-3.666 0-6.832-.5-9.514-1.476l-.684 1.88zm10.198 1.596c3.091 0 5.704-.528 7.775-1.658l-.958-1.756c-1.684.918-3.935 1.414-6.817 1.414v2zm7.759-1.649c2.163-1.129 3.769-2.832 4.798-5.078l-1.818-.834c-.848 1.85-2.144 3.22-3.906 4.138l.926 1.774zm4.791-5.062c1.089-2.271 1.792-5.124 2.141-8.523l-1.99-.204c-.334 3.257-.996 5.865-1.955 7.861l1.804.866zm2.141-8.525c.346-3.457.517-7.588.517-12.388h-2c0 4.757-.17 8.818-.507 12.188l1.99.2zm.517-12.388V29.12h-2v46.976h2zm-1-45.976h20.992v-2h-20.992v2zm19.992-1v46.208h2V29.12h-2zm0 46.208c0 6.79-.382 12.974-1.143 18.553l1.982.27c.775-5.684 1.161-11.96 1.161-18.823h-2zm-1.143 18.553c-.754 5.527-2.298 10.307-4.613 14.359l1.736.992c2.464-4.311 4.077-9.344 4.859-15.08l-1.982-.271zm-4.617 14.365c-2.191 3.896-5.525 6.918-10.051 9.058l.854 1.808c4.861-2.297 8.524-5.59 10.941-9.886l-1.744-.98zm-10.038 9.052c-4.513 2.051-10.627 3.11-18.402 3.11v2c7.926 0 14.357-1.075 19.23-3.29l-.828-1.82zm-18.402 3.11c-3.934 0-7.465-.46-10.602-1.369l-.556 1.922c3.348.969 7.07 1.447 11.158 1.447v-2zm-10.602-1.369a29.828 29.828 0 01-8.671-4.087l-1.134 1.648a31.854 31.854 0 009.249 4.361l.556-1.922zm-8.272-3.004l4.608-17.151-1.932-.52-4.608 17.153 1.932.518zm134.348-14.467h1v-1h-1v1zm0 18.432v1h1v-1h-1zm-63.872 0h-1v1h1v-1zm0-90.88v-1h-1v1h1zm62.72 0h1v-1h-1v1zm0 18.432v1h1v-1h-1zm-41.728 0v-1h-1v1h1zm0 17.664h-1v1h1v-1zm35.84 0h1v-1h-1v1zm0 17.024v1h1v-1h-1zm-35.84 0v-1h-1v1h1zm0 19.328h-1v1h1v-1zm41.88 0V120h2v-18.432h-2zm1 17.432h-63.872v2h63.872v-2zm-62.872 1V29.12h-2V120h2zm-1-89.88h62.72v-2h-62.72v2zm61.72-1v18.432h2V29.12h-2zm1 17.432h-41.728v2h41.728v-2zm-42.728 1v17.664h2V47.552h-2zm1 18.664h35.84v-2h-35.84v2zm34.84-1V82.24h2V65.216h-2zm1 16.024h-35.84v2h35.84v-2zm-36.84 1v19.328h2V82.24h-2zm1 20.328h42.88v-2h-42.88v2zm51.957-45.032l.933.361.001-.005-.934-.356zm8.96-14.592l-.743-.67.743.67zm14.336-10.368l.414.91.011-.005-.425-.905zm41.344 1.536l-.508.862.006.003.502-.865zm14.08 14.336l.573.82.72-.503-.406-.78-.887.463zM466.62 59.712l-.922.388.48 1.14 1.015-.708-.573-.82zm-5.504-7.552l-.628.778.007.006.007.005.614-.789zm-7.424-3.712l-.279.96.018.006.018.004.243-.97zm-18.176 1.28l.457.89.01-.006.01-.005-.477-.879zM428.092 56l.803.596-.803-.596zm-4.352 8.832l.961.278-.961-.278zm.256 20.096l.949-.316-.949.316zm4.736 8.832l-.781.625.006.007.007.008.768-.64zm7.68 6.144l-.457.889.01.006.01.005.437-.9zm17.664.896l.307.952-.307-.952zm7.296-3.968l.628.778.004-.003-.632-.775zm5.248-7.296l.508-.861-1.004-.592-.432 1.082.928.371zm17.152 10.112l.927.374.323-.798-.742-.437-.508.861zm-8.832 11.392l-.611-.792.611.792zm-13.952 7.296l.302.953.01-.003-.312-.95zM427.58 116.8l-.447.894.008.005.009.004.43-.903zm-14.208-10.752l-.755.655.006.008.007.008.742-.671zm-9.216-15.104l-.935.354.003.009.004.008.928-.371zm-2.2-17.152c0-5.42 1-10.717 3.005-15.895l-1.866-.722c-2.091 5.403-3.139 10.944-3.139 16.617h2zm3.006-15.9c2.004-5.258 4.924-10.016 8.769-14.278l-1.486-1.34c-4.006 4.442-7.059 9.412-9.151 14.906l1.868.712zm8.769-14.278c3.828-4.245 8.493-7.621 14.007-10.128l-.828-1.82c-5.75 2.613-10.642 6.149-14.665 10.608l1.486 1.34zm14.018-10.133c5.48-2.574 11.732-3.873 18.775-3.873v-2c-7.293 0-13.841 1.346-19.625 4.063l.85 1.81zm18.775-3.873c8.387 0 15.587 1.802 21.636 5.366l1.016-1.724c-6.409-3.775-13.973-5.642-22.652-5.642v2zm21.642 5.369c6.168 3.584 10.72 8.23 13.695 13.934l1.774-.926c-3.168-6.072-8.003-10.983-14.465-14.738l-1.004 1.73zm14.009 12.651l-16.128 11.264 1.146 1.64 16.128-11.264-1.146-1.64zm-14.633 11.696c-1.419-3.368-3.348-6.036-5.812-7.953l-1.228 1.578c2.144 1.668 3.884 4.034 5.196 7.151l1.844-.776zm-5.798-7.942a20.033 20.033 0 00-7.809-3.904l-.486 1.94a18.036 18.036 0 017.039 3.52l1.256-1.556zm-7.773-3.894c-2.726-.792-5.38-1.192-7.959-1.192v2c2.37 0 4.836.368 7.401 1.112l.558-1.92zm-7.959-1.192c-4.147 0-7.816.84-10.973 2.553l.954 1.758c2.816-1.529 6.145-2.311 10.019-2.311v-2zm-10.953 2.543c-3.12 1.604-5.714 3.794-7.77 6.565l1.606 1.192c1.87-2.52 4.225-4.511 7.078-5.979l-.914-1.778zm-7.77 6.565c-2.036 2.744-3.539 5.796-4.51 9.15l1.922.556c.906-3.131 2.304-5.967 4.194-8.514l-1.606-1.192zm-4.51 9.15c-.963 3.33-1.447 6.665-1.447 10.006h2c0-3.145.455-6.294 1.369-9.45l-1.922-.556zm-1.447 10.006c0 3.69.571 7.252 1.715 10.684l1.898-.632a31.56 31.56 0 01-1.613-10.052h-2zm1.715 10.684c1.144 3.432 2.777 6.482 4.904 9.14l1.562-1.249c-1.969-2.461-3.494-5.3-4.568-8.523l-1.898.632zm4.917 9.156a25.441 25.441 0 007.991 6.393l.914-1.778a23.45 23.45 0 01-7.369-5.895l-1.536 1.28zm8.011 6.404c3.134 1.521 6.57 2.276 10.293 2.276v-2c-3.445 0-6.579-.696-9.419-2.076l-.874 1.8zm10.293 2.276c2.673 0 5.379-.446 8.115-1.328l-.614-1.904c-2.555.824-5.054 1.232-7.501 1.232v2zm8.115-1.328A23.541 23.541 0 00462 97.61l-1.256-1.556c-2.126 1.717-4.45 2.98-6.975 3.794l.614 1.904zm7.621-4.145c2.446-1.993 4.292-4.569 5.544-7.7l-1.856-.742c-1.137 2.842-2.79 5.13-4.952 6.892l1.264 1.55zm4.108-7.21l17.152 10.112 1.016-1.722-17.152-10.112-1.016 1.722zm16.733 8.876c-1.72 4.26-4.549 7.917-8.516 10.975l1.222 1.584c4.225-3.257 7.284-7.194 9.148-11.81l-1.854-.749zm-8.516 10.975c-4 3.084-8.549 5.464-13.653 7.138l.624 1.9c5.306-1.74 10.059-4.223 14.251-7.454l-1.222-1.584zm-13.643 7.135c-5.029 1.592-10.004 2.385-14.93 2.385v2c5.144 0 10.323-.828 15.534-2.479l-.604-1.906zm-14.93 2.385c-6.432 0-12.342-1.294-17.746-3.871l-.86 1.806c5.69 2.713 11.897 4.065 18.606 4.065v-2zm-17.729-3.862c-5.352-2.677-9.988-6.185-13.913-10.529l-1.484 1.342c4.096 4.531 8.933 8.19 14.503 10.975l.894-1.788zm-13.9-10.513a51.844 51.844 0 01-9.043-14.82l-1.856.742a53.773 53.773 0 009.389 15.388l1.51-1.31zm-9.036-14.803c-2.092-5.523-3.135-11.12-3.135-16.798h-2c0 5.928 1.09 11.765 3.265 17.506l1.87-.708zm158.486-43.038v1h1v-1h-1zm-27.648 0v-1h-1v1h1zm0 72.448v1h1v-1h-1zm-20.992 0h-1v1h1v-1zm0-72.448h1v-1h-1v1zm-27.776 0h-1v1h1v-1zm0-18.432v-1h-1v1h1zm76.416 0h1v-1h-1v1zm0 17.432h-27.648v2h27.648v-2zm-28.648 1V120h2V47.552h-2zm1 71.448h-20.992v2h20.992v-2zm-19.992 1V47.552h-2V120h2zm-1-73.448h-27.776v2h27.776v-2zm-26.776 1V29.12h-2v18.432h2zm-1-17.432h76.416v-2h-76.416v2zm75.416-1v18.432h2V29.12h-2zm65.78 26.624l-.857.514.911 1.52.83-1.566-.884-.468zm-2.688-1.92l-.521.853.017.011.018.01.486-.874zm-5.76-2.944l.406-.914-.406.914zm-24.064-1.92l.52.854.013-.008.013-.008-.546-.838zm-.768 10.496l-.636.772.011.009.011.008.614-.789zm6.528 3.2l-.316.949.013.004.013.004.29-.957zm10.368 3.072l-.28.96.012.004.012.003.256-.967zm15.104 5.632l-.461.887.007.004.007.003.447-.894zm9.728 8.32l-.838.545.004.007.005.008.829-.56zm.64 26.624l.881.473.005-.009-.886-.464zm-7.68 8.576l.56.829.005-.004-.565-.825zm-10.88 4.736l.223.975.01-.002.01-.003-.243-.97zm-26.368.128l-.2.98.011.002.01.002.179-.984zm-13.312-3.84l-.371.928.008.004.008.003.355-.935zm-11.776-6.144l-.893-.45-.398.791.736.491.555-.832zm9.216-18.304l.781-.625-.973-1.216-.701 1.391.893.45zm3.328 2.432l-.537.844.014.008.014.009.509-.861zm6.912 3.584l-.424.906.016.007.017.008.391-.921zm9.344 3.2l.265-.964-.265.964zm18.688-.384l-.537-.844-.009.006-.009.006.555.832zm-.128-10.368l-.563.826.008.006.009.006.546-.838zm-7.808-3.456l-.301.954.007.002.294-.956zm-11.264-3.456l-.294.956.007.002.287-.958zm-13.824-5.76l-.512.86.009.004.503-.864zm-8.064-7.808l-.874.486.005.009.005.009.864-.504zm1.92-27.648l-.822-.57-.003.004.825.566zm12.288-9.984l.398.918.012-.006-.41-.912zm29.056-1.92l-.252.968h.005l.247-.968zm11.136 3.84l-.41.912.008.004.402-.916zm9.344 4.608l.884.468.456-.862-.85-.478-.49.872zm-8.359 16.894c-.243-.406-.683-.774-1.14-1.1a20.683 20.683 0 00-1.919-1.18l-.972 1.748c.752.418 1.324.77 1.729 1.06.202.144.35.264.454.36.109.101.138.148.134.14l1.714-1.029zm-3.024-2.26c-1.584-.968-3.546-1.969-5.875-3.004l-.812 1.828c2.279 1.013 4.157 1.974 5.645 2.883l1.042-1.706zm-5.875-3.004c-2.353-1.046-4.916-1.957-7.687-2.737l-.542 1.926c2.69.756 5.162 1.637 7.417 2.639l.812-1.828zm-7.687-2.737a31.14 31.14 0 00-8.463-1.189v2a29.1 29.1 0 017.921 1.115l.542-1.926zm-8.463-1.189c-3.683 0-6.676.654-8.866 2.082l1.092 1.676c1.736-1.132 4.289-1.758 7.774-1.758v-2zm-8.84 2.066c-2.299 1.4-3.424 3.625-3.424 6.486h2c0-2.259.838-3.788 2.464-4.778l-1.04-1.708zm-3.424 6.486c0 2.316.836 4.233 2.54 5.636l1.272-1.544c-1.198-.986-1.812-2.312-1.812-4.092h-2zm2.562 5.653c1.66 1.291 3.953 2.402 6.826 3.36l.632-1.898c-2.759-.92-4.818-1.942-6.23-3.04l-1.228 1.578zm6.852 3.368c2.82.855 6.28 1.88 10.378 3.075l.56-1.92a1065.778 1065.778 0 01-10.358-3.069l-.58 1.914zm10.402 3.082c5.748 1.521 10.711 3.375 14.899 5.552l.922-1.774c-4.345-2.26-9.452-4.161-15.309-5.712l-.512 1.934zm14.913 5.56c4.135 2.067 7.23 4.73 9.337 7.97l1.676-1.09c-2.331-3.587-5.721-6.47-10.119-8.67l-.894 1.79zm9.346 7.985c2.158 3.197 3.285 7.504 3.285 13.008h2c0-5.76-1.177-10.498-3.627-14.127l-1.658 1.119zm3.285 13.008c0 5-.917 9.184-2.702 12.592l1.772.928c1.969-3.76 2.93-8.28 2.93-13.52h-2zm-2.697 12.583c-1.803 3.359-4.255 6.096-7.364 8.224l1.13 1.65c3.376-2.31 6.044-5.29 7.996-8.928l-1.762-.946zm-7.359 8.22c-3.051 2.062-6.568 3.596-10.563 4.595l.486 1.94c4.197-1.049 7.933-2.672 11.197-4.877l-1.12-1.658zm-10.543 4.59c-4.021.922-8.169 1.383-12.449 1.383v2c4.424 0 8.724-.477 12.895-1.433l-.446-1.95zm-12.449 1.383c-4.373 0-8.878-.42-13.517-1.264l-.358 1.968c4.748.863 9.373 1.296 13.875 1.296v-2zm-13.496-1.26a84.327 84.327 0 01-13.157-3.795l-.71 1.87a86.4 86.4 0 0013.467 3.885l.4-1.96zm-13.141-3.788c-4.206-1.683-8.07-3.7-11.592-6.048l-1.11 1.664c3.646 2.43 7.633 4.51 11.96 6.24l.742-1.856zm-11.254-4.766l9.216-18.304-1.786-.9-9.216 18.304 1.786.9zm7.542-18.13c.264.33.729.71 1.279 1.111a44.72 44.72 0 002.293 1.54l1.074-1.687a42.86 42.86 0 01-2.187-1.467c-.559-.409-.82-.649-.897-.746l-1.562 1.25zm3.6 2.669c1.913 1.13 4.247 2.34 6.997 3.629l.848-1.811c-2.711-1.272-4.985-2.452-6.827-3.54l-1.018 1.722zm7.03 3.644c2.863 1.214 6.02 2.295 9.47 3.243l.53-1.928c-3.377-.929-6.449-1.982-9.218-3.157l-.782 1.842zm9.47 3.243a39.94 39.94 0 0010.633 1.444v-2a37.94 37.94 0 01-10.103-1.372l-.53 1.928zm10.633 1.444c3.823 0 6.836-.601 8.875-1.96l-1.11-1.664c-1.545 1.03-4.078 1.624-7.765 1.624v2zm8.857-1.948c2.151-1.369 3.279-3.343 3.279-5.836h-2c0 1.774-.749 3.128-2.353 4.148l1.074 1.688zm3.279-5.836c0-2.649-1.158-4.753-3.398-6.214l-1.092 1.676c1.685 1.099 2.49 2.579 2.49 4.538h2zm-3.381-6.202c-1.991-1.358-4.698-2.546-8.077-3.586l-.588 1.912c3.277 1.008 5.776 2.124 7.539 3.326l1.126-1.652zm-8.07-3.584a827.741 827.741 0 00-11.278-3.46l-.574 1.916a828.645 828.645 0 0111.25 3.452l.602-1.908zm-11.271-3.458c-5.498-1.692-10.031-3.585-13.615-5.669l-1.006 1.73c3.755 2.182 8.438 4.13 14.033 5.85l.588-1.91zm-13.607-5.663c-3.463-2.062-6.018-4.55-7.711-7.453l-1.728 1.008c1.891 3.242 4.712 5.958 8.417 8.163l1.022-1.718zm-7.701-7.435c-1.602-2.884-2.434-6.545-2.434-11.034h-2c0 4.727.875 8.746 2.686 12.006l1.748-.972zm-2.434-11.034c0-6.242 1.455-11.41 4.305-15.562l-1.65-1.132c-3.123 4.551-4.655 10.136-4.655 16.694h2zm4.302-15.559c2.962-4.278 6.909-7.488 11.864-9.635l-.796-1.836c-5.285 2.29-9.53 5.737-12.712 10.333l1.644 1.138zm11.876-9.641c4.981-2.241 10.429-3.368 16.358-3.368v-2c-6.189 0-11.919 1.177-17.178 3.544l.82 1.824zm16.358-3.368c4.186 0 8.197.502 12.036 1.504l.504-1.936c-4.011-1.046-8.193-1.568-12.54-1.568v2zm12.041 1.505c3.96 1.011 7.617 2.273 10.973 3.783l.82-1.824c-3.471-1.562-7.238-2.86-11.299-3.897l-.494 1.938zm10.981 3.787c3.475 1.525 6.559 3.047 9.256 4.564l.98-1.744c-2.764-1.555-5.909-3.105-9.432-4.652l-.804 1.832zm8.862 3.224l-9.216 17.408 1.768.936 9.216-17.408-1.768-.936z" fill="#005147"/><path d="M400.456 73.792c0-5.547 1.024-10.965 3.072-16.256 2.048-5.376 5.035-10.24 8.96-14.592 3.925-4.352 8.704-7.808 14.336-10.368 5.632-2.645 12.032-3.968 19.2-3.968 8.533 0 15.915 1.835 22.144 5.504 6.315 3.67 11.008 8.448 14.08 14.336L466.12 59.712c-1.365-3.243-3.2-5.76-5.504-7.552a19.035 19.035 0 00-7.424-3.712c-2.645-.768-5.205-1.152-7.68-1.152-4.011 0-7.509.81-10.496 2.432-2.987 1.536-5.461 3.627-7.424 6.272-1.963 2.645-3.413 5.59-4.352 8.832-.939 3.243-1.408 6.485-1.408 9.728 0 3.584.555 7.04 1.664 10.368 1.109 3.328 2.688 6.272 4.736 8.832a24.437 24.437 0 007.68 6.144c2.987 1.451 6.272 2.176 9.856 2.176 2.56 0 5.163-.427 7.808-1.28 2.645-.853 5.077-2.176 7.296-3.968 2.304-1.877 4.053-4.31 5.248-7.296l17.152 10.112c-1.792 4.437-4.736 8.235-8.832 11.392-4.096 3.157-8.747 5.589-13.952 7.296-5.12 1.621-10.197 2.432-15.232 2.432-6.571 0-12.629-1.323-18.176-3.968-5.461-2.731-10.197-6.315-14.208-10.752a52.826 52.826 0 01-9.216-15.104c-2.133-5.632-3.2-11.35-3.2-17.152zm162.621-26.24h-27.648V120h-20.992V47.552h-27.776V29.12h76.416v18.432zm64.78 8.192c-.256-.427-1.152-1.067-2.688-1.92-1.536-.939-3.456-1.92-5.76-2.944s-4.821-1.92-7.552-2.688a30.135 30.135 0 00-8.192-1.152c-3.584 0-6.357.64-8.32 1.92-1.963 1.195-2.944 3.072-2.944 5.632 0 2.048.725 3.67 2.176 4.864 1.536 1.195 3.712 2.261 6.528 3.2 2.816.853 6.272 1.877 10.368 3.072 5.803 1.536 10.837 3.413 15.104 5.632 4.267 2.133 7.509 4.907 9.728 8.32 2.304 3.413 3.456 7.936 3.456 13.568 0 5.12-.939 9.472-2.816 13.056-1.877 3.499-4.437 6.357-7.68 8.576-3.157 2.133-6.784 3.712-10.88 4.736-4.096.939-8.32 1.408-12.672 1.408-4.437 0-9.003-.427-13.696-1.28a85.473 85.473 0 01-13.312-3.84c-4.267-1.707-8.192-3.755-11.776-6.144l9.216-18.304c.341.427 1.451 1.237 3.328 2.432 1.877 1.11 4.181 2.304 6.912 3.584 2.816 1.195 5.931 2.261 9.344 3.2a38.914 38.914 0 0010.368 1.408c3.755 0 6.528-.597 8.32-1.792 1.877-1.195 2.816-2.859 2.816-4.992 0-2.304-.981-4.096-2.944-5.376-1.877-1.28-4.48-2.432-7.808-3.456a828.191 828.191 0 00-11.264-3.456c-5.547-1.707-10.155-3.627-13.824-5.76-3.584-2.133-6.272-4.736-8.064-7.808-1.707-3.072-2.56-6.912-2.56-11.52 0-6.4 1.493-11.776 4.48-16.128 3.072-4.437 7.168-7.765 12.288-9.984 5.12-2.304 10.709-3.456 16.768-3.456 4.267 0 8.363.512 12.288 1.536 4.011 1.024 7.723 2.304 11.136 3.84 3.499 1.536 6.613 3.072 9.344 4.608l-9.216 17.408z" fill="#fff"/><path d="M403.528 57.536l.933.361.001-.005-.934-.356zm8.96-14.592l-.743-.67.743.67zm14.336-10.368l.414.91.011-.005-.425-.905zm41.344 1.536l-.508.862.006.003.502-.865zm14.08 14.336l.573.82.72-.503-.406-.78-.887.463zM466.12 59.712l-.922.388.48 1.14 1.015-.708-.573-.82zm-5.504-7.552l-.628.778.007.006.007.005.614-.789zm-7.424-3.712l-.279.96.018.006.018.004.243-.97zm-18.176 1.28l.457.89.01-.006.01-.005-.477-.879zM427.592 56l.803.596-.803-.596zm-4.352 8.832l.961.278-.961-.278zm.256 20.096l.949-.316-.949.316zm4.736 8.832l-.781.625.006.007.007.008.768-.64zm7.68 6.144l-.457.889.01.006.01.005.437-.9zm17.664.896l.307.952-.307-.952zm7.296-3.968l.628.778.004-.003-.632-.775zm5.248-7.296l.508-.861-1.004-.592-.432 1.082.928.371zm17.152 10.112l.927.374.323-.798-.742-.437-.508.861zm-8.832 11.392l-.611-.792.611.792zm-13.952 7.296l.302.953.01-.003-.312-.95zM427.08 116.8l-.447.894.008.005.009.004.43-.903zm-14.208-10.752l-.755.655.006.008.007.008.742-.671zm-9.216-15.104l-.935.354.003.009.004.008.928-.371zm-2.2-17.152c0-5.42 1-10.717 3.005-15.895l-1.866-.722c-2.091 5.403-3.139 10.944-3.139 16.617h2zm3.006-15.9c2.004-5.258 4.924-10.016 8.769-14.278l-1.486-1.34c-4.006 4.442-7.059 9.412-9.151 14.906l1.868.712zm8.769-14.278c3.828-4.245 8.493-7.621 14.007-10.128l-.828-1.82c-5.75 2.613-10.642 6.149-14.665 10.608l1.486 1.34zm14.018-10.133c5.48-2.574 11.732-3.873 18.775-3.873v-2c-7.293 0-13.841 1.346-19.625 4.063l.85 1.81zm18.775-3.873c8.387 0 15.587 1.802 21.636 5.366l1.016-1.724c-6.409-3.775-13.973-5.642-22.652-5.642v2zm21.642 5.369c6.168 3.584 10.72 8.23 13.695 13.934l1.774-.926c-3.168-6.072-8.003-10.983-14.465-14.738l-1.004 1.73zm14.009 12.651l-16.128 11.264 1.146 1.64 16.128-11.264-1.146-1.64zm-14.633 11.696c-1.419-3.368-3.348-6.036-5.812-7.953l-1.228 1.578c2.144 1.668 3.884 4.034 5.196 7.151l1.844-.776zm-5.798-7.942a20.033 20.033 0 00-7.809-3.904l-.486 1.94a18.036 18.036 0 017.039 3.52l1.256-1.556zm-7.773-3.894c-2.726-.792-5.38-1.192-7.959-1.192v2c2.37 0 4.836.368 7.401 1.112l.558-1.92zm-7.959-1.192c-4.147 0-7.816.84-10.973 2.553l.954 1.758c2.816-1.529 6.145-2.311 10.019-2.311v-2zm-10.953 2.543c-3.12 1.604-5.714 3.794-7.77 6.565l1.606 1.192c1.87-2.52 4.225-4.511 7.078-5.979l-.914-1.778zm-7.77 6.565c-2.036 2.744-3.539 5.796-4.51 9.15l1.922.556c.906-3.131 2.304-5.967 4.194-8.514l-1.606-1.192zm-4.51 9.15c-.963 3.33-1.447 6.665-1.447 10.006h2c0-3.145.455-6.294 1.369-9.45l-1.922-.556zm-1.447 10.006c0 3.69.571 7.252 1.715 10.684l1.898-.632a31.56 31.56 0 01-1.613-10.052h-2zm1.715 10.684c1.144 3.432 2.777 6.482 4.904 9.14l1.562-1.249c-1.969-2.461-3.494-5.3-4.568-8.523l-1.898.632zm4.917 9.156a25.441 25.441 0 007.991 6.393l.914-1.778A23.45 23.45 0 01429 93.12l-1.536 1.28zm8.011 6.404c3.134 1.521 6.57 2.276 10.293 2.276v-2c-3.445 0-6.579-.696-9.419-2.076l-.874 1.8zm10.293 2.276c2.673 0 5.379-.446 8.115-1.328l-.614-1.904c-2.555.824-5.054 1.232-7.501 1.232v2zm8.115-1.328a23.541 23.541 0 007.617-4.142l-1.256-1.556c-2.126 1.717-4.45 2.98-6.975 3.794l.614 1.904zm7.621-4.145c2.446-1.993 4.292-4.569 5.544-7.7l-1.856-.742c-1.137 2.842-2.79 5.13-4.952 6.892l1.264 1.55zm4.108-7.21l17.152 10.112 1.016-1.722-17.152-10.112-1.016 1.722zm16.733 8.876c-1.72 4.26-4.549 7.917-8.516 10.975l1.222 1.584c4.225-3.257 7.284-7.194 9.148-11.81l-1.854-.749zm-8.516 10.975c-4 3.084-8.549 5.464-13.653 7.138l.624 1.9c5.306-1.74 10.059-4.223 14.251-7.454l-1.222-1.584zm-13.643 7.135c-5.029 1.592-10.004 2.385-14.93 2.385v2c5.144 0 10.323-.828 15.534-2.479l-.604-1.906zm-14.93 2.385c-6.432 0-12.342-1.294-17.746-3.871l-.86 1.806c5.69 2.713 11.897 4.065 18.606 4.065v-2zm-17.729-3.862c-5.352-2.677-9.988-6.185-13.913-10.529l-1.484 1.342c4.096 4.531 8.933 8.19 14.503 10.975l.894-1.788zm-13.9-10.513a51.844 51.844 0 01-9.043-14.82l-1.856.742a53.773 53.773 0 009.389 15.388l1.51-1.31zm-9.036-14.803c-2.092-5.523-3.135-11.12-3.135-16.798h-2c0 5.928 1.09 11.765 3.265 17.506l1.87-.708zm158.486-43.038v1h1v-1h-1zm-27.648 0v-1h-1v1h1zm0 72.448v1h1v-1h-1zm-20.992 0h-1v1h1v-1zm0-72.448h1v-1h-1v1zm-27.776 0h-1v1h1v-1zm0-18.432v-1h-1v1h1zm76.416 0h1v-1h-1v1zm0 17.432h-27.648v2h27.648v-2zm-28.648 1V120h2V47.552h-2zm1 71.448h-20.992v2h20.992v-2zm-19.992 1V47.552h-2V120h2zm-1-73.448h-27.776v2h27.776v-2zm-26.776 1V29.12h-2v18.432h2zm-1-17.432h76.416v-2h-76.416v2zm75.416-1v18.432h2V29.12h-2zm65.78 26.624l-.857.514.911 1.52.83-1.566-.884-.468zm-2.688-1.92l-.521.853.017.011.018.01.486-.874zm-5.76-2.944l.406-.914-.406.914zm-24.064-1.92l.52.854.013-.008.013-.008-.546-.838zm-.768 10.496l-.636.772.011.009.011.008.614-.789zm6.528 3.2l-.316.949.013.004.013.004.29-.957zm10.368 3.072l-.28.96.012.004.012.003.256-.967zm15.104 5.632l-.461.887.007.004.007.003.447-.894zm9.728 8.32l-.838.545.004.007.005.008.829-.56zm.64 26.624l.881.473.005-.009-.886-.464zm-7.68 8.576l.56.829.005-.004-.565-.825zm-10.88 4.736l.223.975.01-.002.01-.003-.243-.97zm-26.368.128l-.2.98.011.002.01.002.179-.984zm-13.312-3.84l-.371.928.008.004.008.003.355-.935zm-11.776-6.144l-.893-.45-.398.791.736.491.555-.832zm9.216-18.304l.781-.625-.973-1.216-.701 1.391.893.45zm3.328 2.432l-.537.844.014.008.014.009.509-.861zm6.912 3.584l-.424.906.016.007.017.008.391-.921zm9.344 3.2l.265-.964-.265.964zm18.688-.384l-.537-.844-.009.006-.009.006.555.832zm-.128-10.368l-.563.826.008.006.009.006.546-.838zm-7.808-3.456l-.301.954.007.002.294-.956zm-11.264-3.456l-.294.956.007.002.287-.958zm-13.824-5.76l-.512.86.009.004.503-.864zm-8.064-7.808l-.874.486.005.009.005.009.864-.504zm1.92-27.648l-.822-.57-.003.004.825.566zm12.288-9.984l.398.918.012-.006-.41-.912zm29.056-1.92l-.252.968h.005l.247-.968zm11.136 3.84l-.41.912.008.004.402-.916zm9.344 4.608l.884.468.456-.862-.85-.478-.49.872zm-8.359 16.894c-.243-.406-.683-.774-1.14-1.1a20.683 20.683 0 00-1.919-1.18l-.972 1.748c.752.418 1.324.77 1.729 1.06.202.144.35.264.454.36.109.101.138.148.134.14l1.714-1.029zm-3.024-2.26c-1.584-.968-3.546-1.969-5.875-3.004l-.812 1.828c2.279 1.013 4.157 1.974 5.645 2.883l1.042-1.706zm-5.875-3.004c-2.353-1.046-4.916-1.957-7.687-2.737l-.542 1.926c2.69.756 5.162 1.637 7.417 2.639l.812-1.828zm-7.687-2.737a31.14 31.14 0 00-8.463-1.189v2a29.1 29.1 0 017.921 1.115l.542-1.926zm-8.463-1.189c-3.683 0-6.676.654-8.866 2.082l1.092 1.676c1.736-1.132 4.289-1.758 7.774-1.758v-2zm-8.84 2.066c-2.299 1.4-3.424 3.625-3.424 6.486h2c0-2.259.838-3.788 2.464-4.778l-1.04-1.708zm-3.424 6.486c0 2.316.836 4.233 2.54 5.636l1.272-1.544c-1.198-.986-1.812-2.312-1.812-4.092h-2zm2.562 5.653c1.66 1.291 3.953 2.402 6.826 3.36l.632-1.898c-2.759-.92-4.818-1.942-6.23-3.04l-1.228 1.578zm6.852 3.368c2.82.855 6.28 1.88 10.378 3.075l.56-1.92a1065.778 1065.778 0 01-10.358-3.069l-.58 1.914zm10.402 3.082c5.748 1.521 10.711 3.375 14.899 5.552l.922-1.774c-4.345-2.26-9.452-4.161-15.309-5.712l-.512 1.934zm14.913 5.56c4.135 2.067 7.23 4.73 9.337 7.97l1.676-1.09c-2.331-3.587-5.721-6.47-10.119-8.67l-.894 1.79zm9.346 7.985c2.158 3.197 3.285 7.504 3.285 13.008h2c0-5.76-1.177-10.498-3.627-14.127l-1.658 1.119zm3.285 13.008c0 5-.917 9.184-2.702 12.592l1.772.928c1.969-3.76 2.93-8.28 2.93-13.52h-2zm-2.697 12.583c-1.803 3.359-4.255 6.096-7.364 8.224l1.13 1.65c3.376-2.31 6.044-5.29 7.996-8.928l-1.762-.946zm-7.359 8.22c-3.051 2.062-6.568 3.596-10.563 4.595l.486 1.94c4.197-1.049 7.933-2.672 11.197-4.877l-1.12-1.658zm-10.543 4.59c-4.021.922-8.169 1.383-12.449 1.383v2c4.424 0 8.724-.477 12.895-1.433l-.446-1.95zm-12.449 1.383c-4.373 0-8.878-.42-13.517-1.264l-.358 1.968c4.748.863 9.373 1.296 13.875 1.296v-2zm-13.496-1.26a84.327 84.327 0 01-13.157-3.795l-.71 1.87a86.4 86.4 0 0013.467 3.885l.4-1.96zm-13.141-3.788c-4.206-1.683-8.07-3.7-11.592-6.048l-1.11 1.664c3.646 2.43 7.633 4.51 11.96 6.24l.742-1.856zm-11.254-4.766l9.216-18.304-1.786-.9-9.216 18.304 1.786.9zm7.542-18.13c.264.33.729.71 1.279 1.111a44.72 44.72 0 002.293 1.54l1.074-1.687a42.86 42.86 0 01-2.187-1.467c-.559-.409-.82-.649-.897-.746l-1.562 1.25zm3.6 2.669c1.913 1.13 4.247 2.34 6.997 3.629l.848-1.811c-2.711-1.272-4.985-2.452-6.827-3.54l-1.018 1.722zm7.03 3.644c2.863 1.214 6.02 2.295 9.47 3.243l.53-1.928c-3.377-.929-6.449-1.982-9.218-3.157l-.782 1.842zm9.47 3.243a39.94 39.94 0 0010.633 1.444v-2a37.94 37.94 0 01-10.103-1.372l-.53 1.928zm10.633 1.444c3.823 0 6.836-.601 8.875-1.96l-1.11-1.664c-1.545 1.03-4.078 1.624-7.765 1.624v2zm8.857-1.948c2.151-1.369 3.279-3.343 3.279-5.836h-2c0 1.774-.749 3.128-2.353 4.148l1.074 1.688zm3.279-5.836c0-2.649-1.158-4.753-3.398-6.214l-1.092 1.676c1.685 1.099 2.49 2.579 2.49 4.538h2zm-3.381-6.202c-1.991-1.358-4.698-2.546-8.077-3.586l-.588 1.912c3.277 1.008 5.776 2.124 7.539 3.326l1.126-1.652zm-8.07-3.584a827.741 827.741 0 00-11.278-3.46l-.574 1.916a828.645 828.645 0 0111.25 3.452l.602-1.908zm-11.271-3.458c-5.498-1.692-10.031-3.585-13.615-5.669l-1.006 1.73c3.755 2.182 8.438 4.13 14.033 5.85l.588-1.91zm-13.607-5.663c-3.463-2.062-6.018-4.55-7.711-7.453l-1.728 1.008c1.891 3.242 4.712 5.958 8.417 8.163l1.022-1.718zm-7.701-7.435c-1.602-2.884-2.434-6.545-2.434-11.034h-2c0 4.727.875 8.746 2.686 12.006l1.748-.972zm-2.434-11.034c0-6.242 1.455-11.41 4.305-15.562l-1.65-1.132c-3.123 4.551-4.655 10.136-4.655 16.694h2zm4.302-15.559c2.962-4.278 6.909-7.488 11.864-9.635l-.796-1.836c-5.285 2.29-9.53 5.737-12.712 10.333l1.644 1.138zm11.876-9.641c4.981-2.241 10.429-3.368 16.358-3.368v-2c-6.189 0-11.919 1.177-17.178 3.544l.82 1.824zm16.358-3.368c4.186 0 8.197.502 12.036 1.504l.504-1.936c-4.011-1.046-8.193-1.568-12.54-1.568v2zm12.041 1.505c3.96 1.011 7.617 2.273 10.973 3.783l.82-1.824c-3.471-1.562-7.238-2.86-11.299-3.897l-.494 1.938zm10.981 3.787c3.475 1.525 6.559 3.047 9.256 4.564l.98-1.744c-2.764-1.555-5.909-3.105-9.432-4.652l-.804 1.832zm8.862 3.224l-9.216 17.408 1.768.936 9.216-17.408-1.768-.936z" fill="#fff"/></svg><svg fill="none" viewBox="-0.59 -0.27 234.89 36.56" id="projects-text-small-icon" xmlns="http://www.w3.org/2000/svg"><path d="M.408 35h-1v1h1v-1zm0-34.08v-1h-1v1h1zm28.368 0h1v-1h-1v1zm0 34.08v1h1v-1h-1zm-7.872 0h-1v1h1v-1zm0-27.168h1v-1h-1v1zm-12.624 0v-1h-1v1h1zM8.28 35v1h1v-1h-1zm-6.872 0V.92h-2V35h2zm-1-33.08h28.368v-2H.408v2zm27.368-1V35h2V.92h-2zm1 33.08h-7.872v2h7.872v-2zm-6.872 1V7.832h-2V35h2zm-1-28.168H8.28v2h12.624v-2zm-13.624 1V35h2V7.832h-2zM8.28 34H.408v2H8.28v-2zm27.187 1h-1v1h1v-1zm0-34.08v-1h-1v1h1zm19.008 1.008l-.447.894.013.007.012.006.422-.907zm3.552 2.64l-.748.663.004.005.005.006.74-.674zm2.304 3.696l.93-.368-.93.368zm-.576 9.792l-.884-.466-.004.006-.003.006.891.454zm-3.792 4.32l.562.827.004-.002-.566-.825zM43.34 24.008v-1h-1v1h1zm0 10.992v1h1v-1h-1zm0-17.856h-1v1h1v-1zm9.36-2.112l.91.414-.91-.414zm-.096-5.184l-.894.447.012.025.014.024.868-.496zm-1.392-1.536l-.507.862.01.006.011.006.486-.874zm-7.872-.48v-1h-1v1h1zM36.467 35V.92h-2V35h2zm-1-33.08h14.544v-2H35.467v2zm14.544 0c1.49 0 2.823.306 4.017.902l.894-1.788C53.428.286 51.785-.08 50.012-.08v2zm4.042.915A9.743 9.743 0 0157.28 5.23l1.497-1.326a11.743 11.743 0 00-3.88-2.884l-.843 1.814zm3.235 2.407c.91.998 1.614 2.126 2.113 3.39l1.86-.736a12.974 12.974 0 00-2.495-4.002l-1.478 1.348zm2.113 3.39c.5 1.262.746 2.545.746 3.856h2c0-1.57-.297-3.102-.886-4.592l-1.86.736zm.746 3.856c0 1.786-.423 3.482-1.276 5.102l1.769.932a12.773 12.773 0 001.507-6.034h-2zm-1.283 5.114a10.476 10.476 0 01-3.467 3.95L56.53 23.2a12.475 12.475 0 004.117-4.691l-1.782-.908zm-3.463 3.947c-1.412.96-3.113 1.459-5.15 1.459v2c2.38 0 4.486-.589 6.274-1.805l-1.124-1.654zm-5.15 1.459H43.34v2h6.912v-2zm-7.912 1V35h2V24.008h-2zm1 9.992h-7.872v2h7.872v-2zm0-15.856h6.432v-2H43.34v2zm6.432 0c.815 0 1.572-.24 2.247-.704l-1.133-1.648c-.35.24-.713.352-1.114.352v2zm2.247-.704c.694-.477 1.215-1.165 1.591-1.994l-1.82-.828c-.263.579-.575.947-.904 1.174l1.133 1.648zm1.591-1.994c.395-.869.57-1.883.57-3.006h-2c0 .925-.145 1.639-.39 2.178l1.82.828zm.57-3.006c0-1.17-.212-2.22-.708-3.088l-1.736.992c.272.476.444 1.153.444 2.096h2zm-.681-3.04c-.425-.848-1.017-1.527-1.801-1.962l-.972 1.748c.368.205.704.55.984 1.11l1.789-.895zm-1.78-1.95a4.354 4.354 0 00-2.235-.618v2c.423 0 .825.109 1.221.342l1.014-1.724zm-2.235-.618H43.34v2h6.144v-2zm-7.144 1v9.312h2V7.832h-2zm31.002 26.016l-.436.9.009.004.008.004.42-.908zm-5.328-3.936l-.749.663.007.007.007.008.735-.678zm-3.408-5.568l-.933.359.002.005.931-.364zm.048-12.912l-.921-.389-.005.013.926.376zm3.552-5.472l-.728-.685.728.685zm5.424-3.84l-.407-.913.407.913zm13.68.096l-.435.9.008.004.008.004.42-.908zm5.328 3.936l-.749.663.007.008.742-.671zm3.456 5.616l-.933.359.002.005.931-.364zm-.048 12.768l-.926-.376.926.376zm-3.552 5.52l.722.693.007-.008-.729-.685zm-5.424 3.84l.413.91.006-.002-.419-.908zM71.997 21.848l-.955.294.002.007.953-.301zm1.68 3.264l-.793.608.006.009.007.008.78-.625zm10.608 2.304l.458.89.01-.006.01-.005-.478-.879zm2.784-2.4l.803.596-.803-.596zm1.632-3.312l-.955-.294-.003.008-.002.008.96.278zm0-7.584l-.953.301.953-.301zm-1.728-3.264l-.79.612.004.007.005.006.781-.625zm-2.832-2.304l-.437.9.437-.9zm-7.728.048l-.457-.89-.01.006.467.884zm-2.784 2.352l-.79-.612-.003.004.793.608zm-1.68 3.312l-.955-.294-.003.008-.002.008.96.278zm8.352 20.024c-2.432 0-4.607-.455-6.54-1.348l-.839 1.816c2.226 1.027 4.692 1.532 7.38 1.532v-2zm-6.524-1.34a16.61 16.61 0 01-5.028-3.714l-1.471 1.356a18.612 18.612 0 005.627 4.158l.872-1.8zm-5.015-3.699a17.507 17.507 0 01-3.225-5.269l-1.863.728a19.51 19.51 0 003.59 5.867l1.498-1.326zm-3.223-5.264a16.772 16.772 0 01-1.134-6.073h-2c0 2.332.423 4.598 1.267 6.791l1.867-.718zm-1.134-6.073c0-2.147.393-4.178 1.175-6.104l-1.853-.752a18.052 18.052 0 00-1.322 6.856h2zm1.17-6.091a17.318 17.318 0 013.359-5.176l-1.457-1.37a19.318 19.318 0 00-3.745 5.768l1.843.778zm3.359-5.176a15.728 15.728 0 015.103-3.612l-.815-1.826a17.728 17.728 0 00-5.745 4.068l1.457 1.37zm5.103-3.612c1.941-.866 4.073-1.305 6.408-1.305v-2c-2.592 0-5.005.489-7.223 1.479l.815 1.826zm6.408-1.305c2.394 0 4.53.469 6.429 1.388l.871-1.8c-2.198-1.065-4.638-1.588-7.3-1.588v2zm6.445 1.396c1.959.904 3.621 2.134 4.998 3.69l1.498-1.325c-1.566-1.77-3.456-3.165-5.658-4.181l-.838 1.816zm5.005 3.699a16.882 16.882 0 013.265 5.304l1.867-.718a18.881 18.881 0 00-3.648-5.928l-1.484 1.342zm3.267 5.309a16.144 16.144 0 011.131 5.924h2c0-2.272-.424-4.49-1.268-6.652l-1.863.728zm1.131 5.924c0 2.147-.392 4.178-1.174 6.104l1.853.752a18.05 18.05 0 001.321-6.856h-2zM95.12 24.16a16.73 16.73 0 01-3.354 5.21l1.457 1.371a18.73 18.73 0 003.75-5.829l-1.853-.752zm-3.347 5.203a16.75 16.75 0 01-5.122 3.625l.838 1.816a18.752 18.752 0 005.727-4.056l-1.443-1.385zm-5.115 3.622c-1.907.864-4.02 1.303-6.356 1.303v2c2.593 0 4.991-.489 7.181-1.481l-.825-1.822zM70.42 18.008c0 1.411.207 2.79.62 4.134l1.912-.588a11.982 11.982 0 01-.532-3.546h-2zm.623 4.141a11.52 11.52 0 001.84 3.571l1.587-1.216a9.52 9.52 0 01-1.52-2.957l-1.907.602zm1.853 3.588a9.641 9.641 0 003.155 2.568l.915-1.778a7.642 7.642 0 01-2.509-2.04l-1.561 1.25zm3.155 2.568c1.28.659 2.721.975 4.297.975v-2c-1.303 0-2.423-.26-3.382-.753l-.915 1.778zm4.297.975c1.633 0 3.107-.313 4.394-.975l-.915-1.778c-.954.49-2.103.753-3.479.753v2zm4.413-.985a9.418 9.418 0 003.11-2.683l-1.606-1.192a7.416 7.416 0 01-2.458 2.117l.954 1.758zm3.11-2.683a11.329 11.329 0 001.79-3.63l-1.921-.556a9.331 9.331 0 01-1.475 2.994l1.606 1.192zm1.785-3.614c.413-1.341.62-2.704.62-4.086h-2c0 1.178-.176 2.343-.531 3.498l1.911.588zm.62-4.086c0-1.411-.206-2.777-.622-4.093l-1.907.602a11.52 11.52 0 01.53 3.491h2zm-.622-4.093a10.988 10.988 0 00-1.9-3.588l-1.563 1.25a8.988 8.988 0 011.556 2.94l1.907-.602zm-1.89-3.575a8.906 8.906 0 00-3.187-2.592l-.874 1.8a6.906 6.906 0 012.479 2.016l1.581-1.224zm-3.187-2.592c-1.273-.618-2.69-.916-4.229-.916v2c1.277 0 2.388.246 3.355.716l.874-1.8zm-4.229-.916c-1.632 0-3.106.313-4.393.975l.915 1.778c.953-.49 2.103-.753 3.478-.753v-2zm-4.404.98a9.542 9.542 0 00-3.106 2.624l1.581 1.224a7.542 7.542 0 012.461-2.08l-.936-1.768zm-3.11 2.628c-.813 1.061-1.425 2.273-1.841 3.626l1.911.588c.352-1.143.86-2.14 1.518-2.998l-1.587-1.216zm-1.846 3.642a14.4 14.4 0 00-.568 4.022h2c0-1.187.163-2.341.489-3.466l-1.921-.556zm54.805 14.102h1v-1h-1v1zm0 6.912v1h1v-1h-1zm-23.952 0h-1v1h1v-1zm0-34.08v-1h-1v1h1zm23.52 0h1v-1h-1v1zm0 6.912v1h1v-1h-1zm-15.648 0v-1h-1v1h1zm0 6.624h-1v1h1v-1zm13.44 0h1v-1h-1v1zm0 6.384v1h1v-1h-1zm-13.44 0v-1h-1v1h1zm0 7.248h-1v1h1v-1zm15.08 0V35h2v-6.912h-2zm1 5.912h-23.952v2h23.952v-2zm-22.952 1V.92h-2V35h2zm-1-33.08h23.52v-2h-23.52v2zm22.52-1v6.912h2V.92h-2zm1 5.912h-15.648v2h15.648v-2zm-16.648 1v6.624h2V7.832h-2zm1 7.624h13.44v-2h-13.44v2zm12.44-1v6.384h2v-6.384h-2zm1 5.384h-13.44v2h13.44v-2zm-14.44 1v7.248h2V20.84h-2zm1 8.248h16.08v-2h-16.08v2zM130.721 35h-1v1h1v-1zm0-34.08v-1h-1v1h1zm7.823 0h1v-1h-1v1zm0 13.2h-1v1h1v-1zm2.688 0v1h.513l.299-.416-.812-.584zm9.504-13.2v-1h-.512l-.299.416.811.584zm8.737 0l.803.595 1.181-1.595h-1.984v1zm-12.192 16.464l-.804-.595-.444.6.448.596.8-.601zM160.529 35v1h2.003l-1.204-1.601-.799.601zm-9.552 0l-.809.588.299.412h.51v-1zm-9.984-13.728l.808-.588-.299-.412h-.509v1zm-2.449 0v-1h-1v1h1zm0 13.728v1h1v-1h-1zm-6.823 0V.92h-2V35h2zm-1-33.08h7.823v-2h-7.823v2zm6.823-1v13.2h2V.92h-2zm1 14.2h2.688v-2h-2.688v2zm3.5-.416l9.504-13.2-1.623-1.168-9.504 13.2 1.623 1.168zm8.692-12.784h8.737v-2h-8.737v2zm7.933-1.595l-12.192 16.464 1.607 1.19 12.192-16.464-1.607-1.19zm-12.188 17.66l13.248 17.616 1.599-1.202-13.248-17.616-1.599 1.202zM160.529 34h-9.552v2h9.552v-2zm-8.744.412l-9.984-13.728-1.617 1.176 9.984 13.728 1.617-1.176zm-10.792-14.14h-2.449v2h2.449v-2zm-3.449 1V35h2V21.272h-2zm1 12.728h-7.823v2h7.823v-2zm52.032-26.168v1h1v-1h-1zm-10.368 0v-1h-1v1h1zm0 27.168v1h1v-1h-1zm-7.872 0h-1v1h1v-1zm0-27.168h1v-1h-1v1zm-10.416 0h-1v1h1v-1zm0-6.912v-1h-1v1h1zm28.656 0h1v-1h-1v1zm0 5.912h-10.368v2h10.368v-2zm-11.368 1V35h2V7.832h-2zm1 26.168h-7.872v2h7.872v-2zm-6.872 1V7.832h-2V35h2zm-1-28.168H161.92v2h10.416v-2zm-9.416 1V.92h-2v6.912h2zm-1-5.912h28.656v-2H161.92v2zm27.656-1v6.912h2V.92h-2zM194.42 35h-1v1h1v-1zm0-34.08v-1h-1v1h1zm7.872 0h1v-1h-1v1zm0 11.76h-1v1h1v-1zm12.816 1.344l-.447.894.447-.894zm4.128 3.84l.866-.5-.866.5zm.048 11.808l-.877-.48-.004.006-.003.007.884.467zm-3.984 3.936l-.466-.885-.007.004.473.881zm-13.008-5.04h-1v1h1v-1zm8.304-.624l-.508-.86-.009.004-.009.006.526.85zm1.536-1.728l-.902-.431-.008.016-.007.016.917.399zm0-4.752l-.91.414.008.017.008.016.894-.447zm-1.536-1.68l-.554.832.022.015.024.014.508-.861zm-8.304-.672v-1h-1v1h1zM225.428 35h-1v1h1v-1zm0-34.08v-1h-1v1h1zm7.872 0h1v-1h-1v1zm0 34.08v1h1v-1h-1zm-37.88 0V.92h-2V35h2zm-1-33.08h7.872v-2h-7.872v2zm6.872-1v11.76h2V.92h-2zm1 12.76h6.336v-2h-6.336v2zm6.336 0c2.413 0 4.411.428 6.033 1.238l.894-1.788c-1.962-.982-4.283-1.45-6.927-1.45v2zm6.033 1.238c1.625.813 2.851 1.959 3.709 3.446l1.732-1c-1.062-1.841-2.587-3.255-4.547-4.234l-.894 1.788zm3.709 3.446c.858 1.486 1.306 3.275 1.306 5.404h2c0-2.415-.511-4.562-1.574-6.404l-1.732 1zm1.306 5.404c0 2.099-.433 3.897-1.269 5.424l1.755.96c1.02-1.865 1.514-4.003 1.514-6.384h-2zm-1.276 5.437c-.798 1.51-1.977 2.68-3.566 3.518l.933 1.77c1.931-1.019 3.408-2.473 4.401-4.354l-1.768-.934zm-3.573 3.522c-1.552.833-3.461 1.273-5.767 1.273v2c2.558 0 4.809-.488 6.713-1.511l-.946-1.762zM209.06 34h-14.64v2h14.64v-2zm-6.768-4.432h5.664v-2h-5.664v2zm5.664 0c1.207 0 2.288-.23 3.167-.774l-1.053-1.7c-.465.288-1.144.474-2.114.474v2zm3.149-.763a4.654 4.654 0 001.944-2.19l-1.834-.798a2.66 2.66 0 01-1.127 1.266l1.017 1.722zm1.929-2.157c.423-.884.626-1.85.626-2.88h-2c0 .761-.148 1.428-.43 2.017l1.804.863zm.626-2.88c0-.978-.208-1.9-.633-2.751l-1.789.894c.278.557.422 1.171.422 1.857h2zm-.617-2.718c-.41-.902-1.068-1.613-1.938-2.127l-1.017 1.722c.538.318.904.727 1.134 1.233l1.821-.828zm-1.892-2.098c-.889-.592-1.999-.84-3.243-.84v2c.997 0 1.678.2 2.134.504l1.109-1.664zm-3.243-.84h-5.616v2h5.616v-2zm-6.616 1v9.456h2v-9.456h-2zM226.428 35V.92h-2V35h2zm-1-33.08h7.872v-2h-7.872v2zm6.872-1V35h2V.92h-2zm1 33.08h-7.872v2h7.872v-2z" fill="#fff"/></svg><svg fill="none" viewBox="0 0 16 16" id="search-icon" xmlns="http://www.w3.org/2000/svg"><path d="M6.555 13.082C2.958 13.082 0 10.164 0 6.54 0 2.95 2.924 0 6.555 0a6.535 6.535 0 016.554 6.54c-.033 3.624-2.958 6.542-6.554 6.542zm0-12.11C3.462.973.94 3.489.94 6.575s2.521 5.602 5.614 5.602c3.092 0 5.613-2.516 5.613-5.602C12.134 3.488 9.613.973 6.555.973z" fill="#000"/><path d="M15.294 16l-4.571-4.528.74-.738L16 15.296l-.706.704z" fill="#000"/></svg><svg fill="none" viewBox="0 0 16 65" id="sign-fill-icon" xmlns="http://www.w3.org/2000/svg"><path d="M.895 0v46.725h14.24V0H.895zm0 52.065V64.97h14.24V52.065H.895z" fill="#005147"/></svg><svg fill="none" viewBox="-0.56 -0.6 21.68 94.64" id="sign-icon" xmlns="http://www.w3.org/2000/svg"><path d="M.04 0h-.6v-.6h.6V0zm0 67.2v.6h-.6v-.6h.6zm20.48 0h.6v.6h-.6v-.6zm0-67.2v-.6h.6V0h-.6zM.04 74.88h-.6v-.6h.6v.6zm0 18.56v.6h-.6v-.6h.6zm20.48 0h.6v.6h-.6v-.6zm0-18.56v-.6h.6v.6h-.6zM.64 0v67.2h-1.2V0h1.2zm-.6 66.6h20.48v1.2H.04v-1.2zm19.88.6V0h1.2v67.2h-1.2zm.6-66.6H.04V-.6h20.48V.6zM.64 74.88v18.56h-1.2V74.88h1.2zm-.6 17.96h20.48v1.2H.04v-1.2zm19.88.6V74.88h1.2v18.56h-1.2zm.6-17.96H.04v-1.2h20.48v1.2z" fill="#fff"/></svg><svg fill="none" viewBox="0 0 190 190" id="time-clock-icon" xmlns="http://www.w3.org/2000/svg"><circle cx="95" cy="95" r="94.5" stroke="#fff"/><path d="M83.833 9h-.6v-.6h.6V9zm0 73.5v.6h-.6v-.6h.6zm22.4 0h.6v.6h-.6v-.6zm0-73.5v-.6h.6V9h-.6zm-22.4 81.9h-.6v-.6h.6v.6zm0 20.3v.6h-.6v-.6h.6zm22.4 0h.6v.6h-.6v-.6zm0-20.3v-.6h.6v.6h-.6zM84.433 9v73.5h-1.2V9h1.2zm-.6 72.9h22.4v1.2h-22.4v-1.2zm21.8.6V9h1.2v73.5h-1.2zm.6-72.9h-22.4V8.4h22.4v1.2zm-21.8 81.3v20.3h-1.2V90.9h1.2zm-.6 19.7h22.4v1.2h-22.4v-1.2zm21.8.6V90.9h1.2v20.3h-1.2zm.6-19.7h-22.4v-1.2h22.4v1.2z" fill="#fff"/></svg><svg fill="none" viewBox="0 0 20 23" id="time-icon" xmlns="http://www.w3.org/2000/svg"><circle cx="10" cy="12" r="9" stroke="#005147" stroke-width="1.5"/><path opacity=".3" d="M10 8v3.732a.5.5 0 00.223.416L13 14m2-13l4 3" stroke="#005147" stroke-width="1.5" stroke-linecap="round"/><path d="M10 1v2m5 17l1 2M5 20l-1 2" stroke="#005147" stroke-width="1.5" stroke-linecap="round"/><path opacity=".3" d="M5 1L1 4" stroke="#005147" stroke-width="1.5" stroke-linecap="round"/></svg><svg fill="none" viewBox="-0.16 -0.09 33.4 19.59" id="time-number-icon" xmlns="http://www.w3.org/2000/svg"><path d="M14.808 14.392h.5v-.5h-.5v.5zm0 4.608v.5h.5V19h-.5zM.984 19h-.5v.5h.5V19zm0-4.608v-.5h-.5v.5h.5zm4.544 0v.5h.5v-.5h-.5zm0-8.16h.5v-1.5l-.9 1.2.4.3zM4.632 7l-.267-.423.267.423zm-1.376.736l-.208-.455-.008.004.216.451zm-1.504.576l.121.485.01-.002.009-.003-.14-.48zm-1.408.192h-.5v.5h.5v-.5zm0-4.736v-.5h-.5v.5h.5zm1.344-.32l.186.464.008-.003.007-.003-.201-.458zm1.6-.864l-.262-.426-.008.005.27.421zm1.44-1.024l-.312-.39-.01.008.322.382zm.8-.832v-.5h-.309l-.138.276.447.224zm5.216 0h.5v-.5h-.5v.5zm0 13.664h-.5v.5h.5v-.5zm3.564 0V19h1v-4.608h-1zm.5 4.108H.984v1h13.824v-1zM1.484 19v-4.608h-1V19h1zm-.5-4.108h4.544v-1H.984v1zm5.044-.5v-8.16h-1v8.16h1zm-.9-8.46c-.142.19-.386.407-.763.645l.534.846c.434-.274.787-.568 1.029-.891l-.8-.6zm-.763.645a11.24 11.24 0 01-1.317.704l.416.91A12.235 12.235 0 004.9 7.423l-.534-.846zm-1.325.708a9.418 9.418 0 01-1.428.547l.28.96a10.418 10.418 0 001.58-.605l-.432-.902zm-1.41.542c-.48.12-.909.177-1.286.177v1a6.33 6.33 0 001.53-.207l-.243-.97zm-.786.677V3.768h-1v4.736h1zm-.5-4.236c.452 0 .968-.131 1.53-.356l-.372-.928c-.504.202-.885.284-1.158.284v1zm1.545-.362a12.257 12.257 0 001.669-.9l-.54-.843c-.513.328-1.024.604-1.531.827l.402.916zM3.55 3.01a12.506 12.506 0 001.5-1.068l-.644-.764c-.383.322-.842.649-1.38.98l.524.852zm1.49-1.06c.429-.342.775-.678.935-.998L5.081.504c-.053.107-.24.326-.665.666l.624.78zm.488-.722h5.216v-1H5.528v1zm4.716-.5v13.664h1V.728h-1zm.5 14.164h4.064v-1h-4.064v1zM16.683 19h-.5v.5h.5V19zm.224-2.688l-.49-.106-.002.013.492.093zm.8-2.144l-.433-.251-.003.005.435.246zm1.503-1.824l.334.372h.001l-.335-.372zm2.4-1.632l-.234-.441.234.441zm2.497-1.344l.24.438.005-.002-.245-.436zm1.631-.96l-.267-.423.267.423zm.832-.736l-.416-.277-.005.009.421.268zm-.864-2.56l-.212.452.01.006.012.004.19-.462zm-2.56-.096l.134.482-.134-.482zm-1.12.48l-.253-.431-.011.007.264.424zm-.991.768l.327.378.007-.006.007-.006-.341-.366zm-.96.96l-.38.325.374.437.38-.431-.375-.331zm-3.232-3.776l-.354-.354-.327.328.3.351.38-.325zm1.375-1.088l-.266-.423-.007.005.273.418zm1.953-.96l.178.467.012-.005-.19-.462zm2.367-.704l.099.49.009-.002-.108-.488zm6.593.416l-.205.456.01.005.195-.461zm2.431 1.92l-.416.277.416-.277zm.48 4.864l-.46-.195-.004.01.464.185zm-.864 1.44l.381.324-.38-.324zm-1.248 1.152l-.294-.404-.008.006.302.398zm-1.343.928l.223.447.02-.01.02-.012-.264-.425zm-1.44.768l.232.443.008-.004.008-.005-.248-.434zm-1.248.704l.242.437.01-.005.008-.005-.26-.427zm-1.088.704l.295.403.004-.003-.3-.4zm-.928.8l-.354-.354-.854.854h1.207v-.5zm8.863 0h.5v-.5h-.5v.5zm0 4.608v.5h.5V19h-.5zm-15.564 0c0-.979.074-1.843.216-2.595l-.983-.186c-.156.826-.232 1.755-.232 2.781h1zm.213-2.582a7.041 7.041 0 01.747-2.003l-.87-.493a8.059 8.059 0 00-.854 2.284l.977.212zm.744-1.999a7.028 7.028 0 011.405-1.703l-.667-.744a8.03 8.03 0 00-1.603 1.945l.865.502zm1.406-1.703c.603-.543 1.368-1.065 2.3-1.563l-.47-.882c-.987.526-1.822 1.092-2.499 1.701l.669.744zm2.3-1.563c1.004-.534 1.838-.982 2.502-1.347l-.48-.876c-.66.36-1.49.808-2.491 1.34l.47.883zm2.507-1.35a39.38 39.38 0 001.654-.972l-.535-.846c-.395.25-.93.565-1.61.947l.49.872zm1.654-.972c.428-.271.779-.564.986-.89l-.843-.537c-.091.142-.296.34-.678.581l.535.846zm.98-.882a1.97 1.97 0 00.34-1.109h-1a.972.972 0 01-.172.555l.832.554zm.34-1.109c0-.487-.116-.936-.367-1.326l-.841.54c.133.207.209.463.209.786h1zm-.367-1.326a2.246 2.246 0 00-1.062-.864l-.38.924c.278.115.47.277.6.48l.842-.54zm-1.04-.854c-.447-.211-.973-.304-1.556-.304v1c.482 0 .853.078 1.13.208l.426-.904zm-1.556-.304c-.47 0-.92.059-1.35.178l.267.964a4.025 4.025 0 011.082-.142v-1zm-1.35.178a5.169 5.169 0 00-1.24.531l.507.862a4.17 4.17 0 011-.43l-.267-.963zm-1.252.538a7.15 7.15 0 00-1.068.826l.683.732c.298-.28.604-.515.915-.71l-.53-.848zm-1.054.814c-.339.294-.675.63-1.007 1.007l.75.662c.307-.348.611-.652.912-.913l-.655-.756zM20.454 6.9l-3.232-3.776-.76.65 3.233 3.776.76-.65zm-3.258-3.097a8.104 8.104 0 011.296-1.024l-.547-.836a9.097 9.097 0 00-1.456 1.152l.707.708zm1.289-1.019a10.586 10.586 0 011.864-.916l-.357-.934c-.752.287-1.433.621-2.04 1.004l.533.846zm1.876-.92c.692-.286 1.45-.512 2.276-.677l-.197-.98c-.881.176-1.702.42-2.46.732l.38.924zm2.285-.679a12.152 12.152 0 012.613-.276v-1c-.974 0-1.916.1-2.828.3l.215.976zm2.613-.276c1.488 0 2.704.228 3.667.66l.41-.912c-1.128-.506-2.494-.748-4.077-.748v1zm3.678.665c.99.416 1.717.998 2.21 1.736l.832-.554C31.36 1.829 30.466 1.13 29.323.65l-.387.922zm2.21 1.736c.492.74.748 1.622.748 2.667h1c0-1.216-.3-2.297-.917-3.221l-.832.554zm.748 2.667c0 .672-.11 1.243-.313 1.725l.921.39c.266-.628.392-1.336.392-2.115h-1zm-.317 1.734a4.674 4.674 0 01-.78 1.302l.762.648c.398-.47.714-.996.947-1.578l-.929-.372zm-.78 1.302a6.642 6.642 0 01-1.162 1.072l.589.808c.5-.363.945-.774 1.334-1.232l-.762-.648zm-1.17 1.078c-.437.332-.871.633-1.305.9l.527.851c.462-.286.924-.605 1.383-.955l-.605-.796zm-1.265.879c-.52.26-1.008.52-1.465.78l.497.87c.439-.252.91-.503 1.415-.756l-.447-.894zm-1.448.772c-.457.24-.883.48-1.277.72l.521.854c.374-.229.78-.458 1.22-.688l-.465-.886zm-1.26.71c-.403.224-.784.471-1.145.741l.6.8a8.99 8.99 0 011.031-.667l-.485-.874zm-1.14.738c-.342.25-.67.534-.986.85l.707.707c.282-.282.572-.532.87-.75l-.591-.807zm-.633 1.703h8.864v-1h-8.864v1zm8.364-.5V19h1v-4.608h-1zm.5 4.108H16.682v1h16.064v-1z" fill="#fff"/></svg><svg fill="none" viewBox="3.3 68.7 693.21 220.6" id="time-text-icon" xmlns="http://www.w3.org/2000/svg"><path d="M182.7 112.2v.3h.3v-.3h-.3zm-64.8 0v-.3h-.3v.3h.3zm0 169.8v.3h.3v-.3h-.3zm-49.2 0h-.3v.3h.3v-.3zm0-169.8h.3v-.3h-.3v.3zm-65.1 0h-.3v.3h.3v-.3zm0-43.2v-.3h-.3v.3h.3zm179.1 0h.3v-.3h-.3v.3zm0 42.9h-64.8v.6h64.8v-.6zm-65.1.3V282h.6V112.2h-.6zm.3 169.5H68.7v.6h49.2v-.6zM69 282V112.2h-.6V282h.6zm-.3-170.1H3.6v.6h65.1v-.6zm-64.8.3V69h-.6v43.2h.6zm-.3-42.9h179.1v-.6H3.6v.6zm178.8-.3v43.2h.6V69h-.6zm283 213h-.3v.3h.3v-.3zm0-126.9h.3l-.569-.133.269.133zm-45.9 92.4v.3h.186l.083-.167-.269-.133zm-27 0l-.269.133.083.167h.186v-.3zm-45.9-92.4l.269-.133-.569.133h.3zm0 126.9v.3h.3v-.3h-.3zm-49.2 0h-.3v.3h.3v-.3zm0-213v-.3h-.3v.3h.3zm53.4 0l.269-.133-.083-.167h-.186v.3zM406 180.3l-.269.133.268.541.269-.54-.268-.134zM461.5 69v-.3h-.186l-.082.166.268.134zm53.1 0h.3v-.3h-.3v.3zm0 213v.3h.3v-.3h-.3zm-48.9 0V155.1h-.6V282h.6zm-.569-127.033l-45.9 92.4.538.266 45.9-92.4-.538-.266zM419.5 247.2h-27v.6h27v-.6zm-26.731.167l-45.9-92.4-.538.266 45.9 92.4.538-.266zM346.3 155.1V282h.6V155.1h-.6zm.3 126.6h-49.2v.6h49.2v-.6zm-48.9.3V69h-.6v213h.6zm-.3-212.7h53.4v-.6h-53.4v.6zm53.131-.167l55.2 111.3.538-.266-55.2-111.3-.538.266zm55.737 111.301l55.5-111.3-.536-.268-55.5 111.3.536.268zM461.5 69.3h53.1v-.6h-53.1v.6zm52.8-.3v213h.6V69h-.6zm.3 212.7h-49.2v.6h49.2v-.6zm181.605-42.9h.3v-.3h-.3v.3zm0 43.2v.3h.3v-.3h-.3zm-149.7 0h-.3v.3h.3v-.3zm0-213v-.3h-.3v.3h.3zm147 0h.3v-.3h-.3v.3zm0 43.2v.3h.3v-.3h-.3zm-97.8 0v-.3h-.3v.3h.3zm0 41.4h-.3v.3h.3v-.3zm84 0h.3v-.3h-.3v.3zm0 39.9v.3h.3v-.3h-.3zm-84 0v-.3h-.3v.3h.3zm0 45.3h-.3v.3h.3v-.3zm100.2 0V282h.6v-43.2h-.6zm.3 42.9h-149.7v.6h149.7v-.6zm-149.4.3V69h-.6v213h.6zm-.3-212.7h147v-.6h-147v.6zm146.7-.3v43.2h.6V69h-.6zm.3 42.9h-97.8v.6h97.8v-.6zm-98.1.3v41.4h.6v-41.4h-.6zm.3 41.7h84v-.6h-84v.6zm83.7-.3v39.9h.6v-39.9h-.6zm.3 39.6h-84v.6h84v-.6zm-84.3.3v45.3h.6v-45.3h-.6zm.3 45.6h100.5v-.6h-100.5v.6zM212.5 70h-.3v-.3h.3v.3zm0 157.5v.3h-.3v-.3h.3zm48 0h.3v.3h-.3v-.3zm0-157.5v-.3h.3v.3h-.3zm-48 175.5h-.3v-.3h.3v.3zm0 43.5v.3h-.3v-.3h.3zm48 0h.3v.3h-.3v-.3zm0-43.5v-.3h.3v.3h-.3zM212.8 70v157.5h-.6V70h.6zm-.3 157.2h48v.6h-48v-.6zm47.7.3V70h.6v157.5h-.6zm.3-157.2h-48v-.6h48v.6zm-47.7 175.2V289h-.6v-43.5h.6zm-.3 43.2h48v.6h-48v-.6zm47.7.3v-43.5h.6V289h-.6zm.3-43.2h-48v-.6h48v.6z" fill="#005147"/></svg></svg>