<svg width="22" height="23" viewBox="0 0 22 23" fill="none" xmlns="http://www.w3.org/2000/svg">
<path d="M11 0C6.82327 0 3.4375 3.53966 3.4375 7.90625V15.0938C3.4375 19.4603 6.82327 23 11 23C15.1767 23 18.5625 19.4603 18.5625 15.0938V7.90625C18.5625 3.53966 15.1767 0 11 0ZM17.1875 15.0938C17.1875 18.6609 14.4121 21.5625 11 21.5625C7.58794 21.5625 4.8125 18.6609 4.8125 15.0938V7.90625C4.8125 4.33909 7.58794 1.4375 11 1.4375C14.4121 1.4375 17.1875 4.33909 17.1875 7.90625V15.0938ZM11 3.59375C9.86064 3.59375 8.9375 4.55885 8.9375 5.75V8.625C8.9375 9.81615 9.86064 10.7812 11 10.7812C12.1394 10.7812 13.0625 9.81615 13.0625 8.625V5.75C13.0625 4.55885 12.1394 3.59375 11 3.59375ZM11.6875 8.625C11.6875 9.02157 11.3793 9.34375 11 9.34375C10.6207 9.34375 10.3125 9.02157 10.3125 8.625V5.75C10.3125 5.35343 10.6207 5.03125 11 5.03125C11.3793 5.03125 11.6875 5.35343 11.6875 5.75V8.625Z" fill="#005147"/>
</svg>
