<svg width="20" height="21" viewBox="0 0 20 21" fill="none" xmlns="http://www.w3.org/2000/svg">
<path d="M17.0621 18.9691C15.1077 20.9235 10.1028 19.0871 5.88327 14.8676C1.66372 10.648 -0.172609 5.64313 1.7817 3.6888L3.06847 2.40204C3.9568 1.51371 5.42054 1.53719 6.33784 2.45449L8.33092 4.44757C9.24822 5.36487 9.2717 6.82861 8.38337 7.71694L8.10699 7.99332C7.62737 8.47294 7.58045 9.24667 8.0261 9.78672C8.45597 10.3076 8.9194 10.8265 9.42188 11.329C9.92435 11.8315 10.4432 12.2949 10.9641 12.7248C11.5042 13.1704 12.2779 13.1235 12.7575 12.6439L13.0339 12.3675C13.9222 11.4792 15.386 11.5026 16.3033 12.4199L18.2964 14.413C19.2137 15.3303 19.2371 16.7941 18.3488 17.6824L17.0621 18.9691Z" stroke="#005147" stroke-width="1.5"/>
<path opacity="0.3" d="M15.6267 7.75071C15.3827 7.15553 15.0191 6.5979 14.5358 6.11463C14.0798 5.65865 13.5576 5.30918 13.0002 5.06622" stroke="#005147" stroke-width="1.5" stroke-linecap="round"/>
<path opacity="0.3" d="M13.0002 1.66329C14.3348 2.14679 15.587 2.92353 16.657 3.99352C17.7539 5.09037 18.5426 6.37871 19.0231 7.75101" stroke="#005147" stroke-width="1.5" stroke-linecap="round"/>
</svg>
