<svg width="644" height="150" viewBox="0 0 644 150" fill="none" xmlns="http://www.w3.org/2000/svg">
<path d="M8.704 120H7.704V121H8.704V120ZM8.704 29.12V28.12H7.704V29.12H8.704ZM59.392 31.808L58.9448 32.7024L58.9574 32.7088L58.9703 32.7147L59.392 31.808ZM68.864 38.848L68.1154 39.511L68.1202 39.5164L68.125 39.5218L68.864 38.848ZM75.008 48.704L75.938 48.3363L75.938 48.3363L75.008 48.704ZM73.472 74.816L72.5874 74.3496L72.5841 74.3559L72.5808 74.3623L73.472 74.816ZM63.36 86.336L63.9223 87.1629L63.9258 87.1605L63.36 86.336ZM29.696 90.688V89.688H28.696V90.688H29.696ZM29.696 120V121H30.696V120H29.696ZM29.696 72.384H28.696V73.384H29.696V72.384ZM54.656 66.752L55.5664 67.1658L55.5664 67.1658L54.656 66.752ZM54.4 52.928L53.5056 53.3752L53.518 53.4L53.5318 53.4241L54.4 52.928ZM50.688 48.832L50.181 49.6939L50.1916 49.7002L50.2024 49.7061L50.688 48.832ZM29.696 47.552V46.552H28.696V47.552H29.696ZM9.704 120V29.12H7.704V120H9.704ZM8.704 30.12H47.488V28.12H8.704V30.12ZM47.488 30.12C51.6984 30.12 55.5113 30.9857 58.9448 32.7024L59.8392 30.9136C56.1047 29.0463 51.9816 28.12 47.488 28.12V30.12ZM58.9703 32.7147C62.5169 34.3643 65.5625 36.6287 68.1154 39.511L69.6126 38.185C66.8749 35.094 63.6058 32.665 59.8137 30.9013L58.9703 32.7147ZM68.125 39.5218C70.6883 42.333 72.6717 45.5145 74.078 49.0717L75.938 48.3363C74.4429 44.5548 72.3304 41.1656 69.603 38.1742L68.125 39.5218ZM74.078 49.0717C75.4837 52.6272 76.184 56.2574 76.184 59.968H78.184C78.184 55.9986 77.4336 52.1194 75.938 48.3363L74.078 49.0717ZM76.184 59.968C76.184 65.0076 74.9878 69.7971 72.5874 74.3496L74.3566 75.2824C76.9055 70.4482 78.184 65.3391 78.184 59.968H76.184ZM72.5808 74.3623C70.2675 78.9065 67.0088 82.6191 62.7942 85.5115L63.9258 87.1605C68.4152 84.0796 71.8979 80.1122 74.3632 75.2697L72.5808 74.3623ZM62.7977 85.5091C58.7195 88.2822 53.8447 89.688 48.128 89.688V91.688C54.1873 91.688 59.4672 90.1924 63.9223 87.1629L62.7977 85.5091ZM48.128 89.688H29.696V91.688H48.128V89.688ZM28.696 90.688V120H30.696V90.688H28.696ZM29.696 119H8.704V121H29.696V119ZM29.696 73.384H46.848V71.384H29.696V73.384ZM46.848 73.384C48.6763 73.384 50.3664 72.8506 51.8945 71.8L50.7615 70.152C49.5589 70.9787 48.2624 71.384 46.848 71.384V73.384ZM51.8945 71.8C53.4423 70.736 54.6561 69.1684 55.5664 67.1658L53.7456 66.3382C52.9492 68.0903 51.9444 69.3387 50.7615 70.152L51.8945 71.8ZM55.5664 67.1658C56.4946 65.1236 56.936 62.6693 56.936 59.84H54.936C54.936 62.472 54.524 64.6257 53.7456 66.3382L55.5664 67.1658ZM56.936 59.84C56.936 56.9107 56.4044 54.4202 55.2682 52.4319L53.5318 53.4241C54.4436 55.0198 54.936 57.1373 54.936 59.84H56.936ZM55.2944 52.4808C54.2835 50.4589 52.9178 48.9268 51.1736 47.9578L50.2024 49.7061C51.5302 50.4439 52.6392 51.6424 53.5056 53.3752L55.2944 52.4808ZM51.195 47.9701C49.5968 47.0299 47.8866 46.552 46.08 46.552V48.552C47.5161 48.552 48.8779 48.9274 50.181 49.6939L51.195 47.9701ZM46.08 46.552H29.696V48.552H46.08V46.552ZM28.696 47.552V72.384H30.696V47.552H28.696ZM88.454 120H87.454V121H88.454V120ZM88.454 29.12V28.12H87.454V29.12H88.454ZM141.19 31.808L140.743 32.7024L140.755 32.7088L140.768 32.7147L141.19 31.808ZM150.662 38.848L149.913 39.511L149.918 39.5164L149.923 39.5218L150.662 38.848ZM156.806 48.704L155.876 49.0717L155.88 49.0809L155.884 49.0901L156.806 48.704ZM157.318 70.592L158.259 70.9299L158.262 70.9223L157.318 70.592ZM152.198 79.68L152.964 80.3226L152.969 80.3166L152.974 80.3106L152.198 79.68ZM144.262 86.208L143.776 85.3338L142.879 85.8326L143.401 86.7167L144.262 86.208ZM164.23 120V121H165.982L165.091 119.491L164.23 120ZM141.062 120L140.202 120.511L140.493 121H141.062V120ZM123.654 90.688L124.514 90.1774L124.223 89.688H123.654V90.688ZM109.446 90.688V89.688H108.446V90.688H109.446ZM109.446 120V121H110.446V120H109.446ZM109.446 72.384H108.446V73.384H109.446V72.384ZM133.126 70.848L133.751 71.6289L133.757 71.6241L133.126 70.848ZM136.454 66.368L135.544 65.9542L135.544 65.9542L136.454 66.368ZM136.198 53.44L135.304 53.8872L135.316 53.912L135.33 53.9361L136.198 53.44ZM132.614 49.088L132.037 49.905L132.037 49.905L132.614 49.088ZM109.446 47.552V46.552H108.446V47.552H109.446ZM89.454 120V29.12H87.454V120H89.454ZM88.454 30.12H129.414V28.12H88.454V30.12ZM129.414 30.12C133.536 30.12 137.307 30.9843 140.743 32.7024L141.637 30.9136C137.905 29.0477 133.826 28.12 129.414 28.12V30.12ZM140.768 32.7147C144.315 34.3643 147.36 36.6287 149.913 39.511L151.411 38.185C148.673 35.094 145.404 32.665 141.612 30.9013L140.768 32.7147ZM149.923 39.5218C152.486 42.333 154.47 45.5145 155.876 49.0717L157.736 48.3363C156.241 44.5548 154.128 41.1656 151.401 38.1742L149.923 39.5218ZM155.884 49.0901C157.371 52.6445 158.11 56.2257 158.11 59.84H160.11C160.11 55.945 159.313 52.1021 157.728 48.3179L155.884 49.0901ZM158.11 59.84C158.11 63.4865 157.53 66.9585 156.374 70.2616L158.262 70.9223C159.495 67.3988 160.11 63.7028 160.11 59.84H158.11ZM156.377 70.2541C155.22 73.4765 153.569 76.4067 151.422 79.0494L152.974 80.3106C155.264 77.4919 157.027 74.3635 158.259 70.9299L156.377 70.2541ZM151.432 79.0374C149.293 81.5873 146.743 83.6855 143.776 85.3338L144.748 87.0822C147.925 85.3172 150.666 83.0633 152.964 80.3226L151.432 79.0374ZM143.401 86.7167L163.369 120.509L165.091 119.491L145.123 85.6993L143.401 86.7167ZM164.23 119H141.062V121H164.23V119ZM141.922 119.489L124.514 90.1774L122.794 91.1986L140.202 120.511L141.922 119.489ZM123.654 89.688H109.446V91.688H123.654V89.688ZM108.446 90.688V120H110.446V90.688H108.446ZM109.446 119H88.454V121H109.446V119ZM109.446 73.384H128.646V71.384H109.446V73.384ZM128.646 73.384C130.57 73.384 132.286 72.8009 133.751 71.6289L132.501 70.0671C131.406 70.9431 130.136 71.384 128.646 71.384V73.384ZM133.757 71.6241C135.261 70.4018 136.458 68.7757 137.364 66.7818L135.544 65.9542C134.743 67.7149 133.722 69.0755 132.495 70.0719L133.757 71.6241ZM137.364 66.7818C138.287 64.7512 138.734 62.4293 138.734 59.84H136.734C136.734 62.2 136.327 64.2302 135.544 65.9542L137.364 66.7818ZM138.734 59.84C138.734 57.2259 138.192 54.9144 137.066 52.9439L135.33 53.9361C136.252 55.5496 136.734 57.5047 136.734 59.84H138.734ZM137.092 52.9928C136.093 50.9947 134.799 49.4061 133.191 48.271L132.037 49.905C133.331 50.8179 134.425 52.1306 135.304 53.8872L137.092 52.9928ZM133.191 48.271C131.588 47.1398 129.854 46.552 128.006 46.552V48.552C129.401 48.552 130.739 48.9882 132.037 49.905L133.191 48.271ZM128.006 46.552H109.446V48.552H128.006V46.552ZM108.446 47.552V72.384H110.446V47.552H108.446ZM194.577 116.928L194.141 117.828L194.149 117.832L194.158 117.836L194.577 116.928ZM180.369 106.432L179.62 107.095L179.627 107.102L179.634 107.11L180.369 106.432ZM171.281 91.584L170.348 91.943L170.35 91.9478L171.281 91.584ZM171.409 57.152L170.488 56.7633L170.483 56.7756L171.409 57.152ZM180.881 42.56L180.153 41.8746L180.152 41.8751L180.881 42.56ZM195.345 32.32L194.938 31.4068L194.938 31.4068L195.345 32.32ZM231.825 32.576L231.389 33.476L231.397 33.48L231.406 33.484L231.825 32.576ZM246.033 43.072L245.284 43.7346L245.291 43.7425L246.033 43.072ZM255.249 58.048L254.316 58.407L254.318 58.4118L255.249 58.048ZM255.121 92.096L254.195 91.7196L254.195 91.7196L255.121 92.096ZM245.649 106.816L246.37 107.509L246.377 107.501L245.649 106.816ZM231.185 117.056L231.598 117.967L231.604 117.964L231.185 117.056ZM190.993 84.928L190.037 85.2221L190.039 85.2291L190.993 84.928ZM195.473 93.632L194.679 94.2404L194.686 94.2486L194.692 94.2567L195.473 93.632ZM223.761 99.776L224.218 100.665L224.228 100.66L224.238 100.655L223.761 99.776ZM231.185 93.376L231.988 93.9718L231.988 93.9718L231.185 93.376ZM235.537 84.544L234.581 84.2499L234.579 84.2579L234.576 84.2659L235.537 84.544ZM235.537 64.32L234.583 64.6211L234.583 64.6211L235.537 64.32ZM230.929 55.616L230.138 56.2282L230.143 56.2345L230.148 56.2407L230.929 55.616ZM223.377 49.472L222.94 50.3715L222.94 50.3715L223.377 49.472ZM202.769 49.6L202.312 48.7106L202.301 48.7162L202.769 49.6ZM195.345 55.872L194.554 55.2598L194.551 55.2636L195.345 55.872ZM190.865 64.704L189.909 64.4099L189.907 64.4179L189.904 64.4259L190.865 64.704ZM213.137 119.768C206.438 119.768 200.397 118.513 194.996 116.02L194.158 117.836C199.851 120.463 206.183 121.768 213.137 121.768V119.768ZM195.013 116.028C189.662 113.436 185.028 110.012 181.104 105.754L179.634 107.11C183.731 111.556 188.57 115.129 194.141 117.828L195.013 116.028ZM181.118 105.769C177.27 101.419 174.303 96.5708 172.212 91.2201L170.35 91.9478C172.526 97.5199 175.618 102.57 179.62 107.095L181.118 105.769ZM172.214 91.225C170.125 85.7918 169.081 80.1961 169.081 74.432H167.081C167.081 80.4439 168.171 86.2828 170.348 91.943L172.214 91.225ZM169.081 74.432C169.081 68.4987 170.167 62.8668 172.335 57.5284L170.483 56.7756C168.214 62.3598 167.081 68.248 167.081 74.432H169.081ZM172.33 57.5407C174.589 52.1874 177.681 47.424 181.61 43.2449L180.152 41.8751C176.059 46.2293 172.837 51.1939 170.488 56.7633L172.33 57.5407ZM181.609 43.2454C185.613 38.9914 190.325 35.6548 195.752 33.2332L194.938 31.4068C189.272 33.9345 184.341 37.4246 180.153 41.8746L181.609 43.2454ZM195.752 33.2332C201.161 30.8203 207.079 29.608 213.521 29.608V27.608C206.822 27.608 200.623 28.8703 194.938 31.4068L195.752 33.2332ZM213.521 29.608C220.128 29.608 226.078 30.9035 231.389 33.476L232.261 31.676C226.649 28.9579 220.396 27.608 213.521 27.608V29.608ZM231.406 33.484C236.831 35.9878 241.453 39.4043 245.284 43.7346L246.782 42.4094C242.762 37.8651 237.913 34.2842 232.244 31.668L231.406 33.484ZM245.291 43.7425C249.22 48.0893 252.227 52.9758 254.316 58.407L256.182 57.689C254.005 52.0269 250.867 46.9294 246.775 42.4015L245.291 43.7425ZM254.318 58.4118C256.407 63.7602 257.449 69.2264 257.449 74.816H259.449C259.449 68.971 258.358 63.2584 256.18 57.6841L254.318 58.4118ZM257.449 74.816C257.449 80.7493 256.363 86.3812 254.195 91.7196L256.047 92.4724C258.316 86.8882 259.449 81 259.449 74.816H257.449ZM254.195 91.7196C252.023 97.065 248.933 101.867 244.921 106.131L246.377 107.501C250.557 103.061 253.782 98.0497 256.047 92.4724L254.195 91.7196ZM244.928 106.123C240.921 110.297 236.203 113.639 230.766 116.148L231.604 117.964C237.26 115.353 242.185 111.868 246.37 107.509L244.928 106.123ZM230.772 116.145C225.453 118.556 219.579 119.768 213.137 119.768V121.768C219.836 121.768 225.995 120.506 231.598 117.967L230.772 116.145ZM188.457 74.688C188.457 78.2859 188.984 81.7983 190.037 85.2221L191.949 84.6339C190.954 81.4017 190.457 78.0875 190.457 74.688H188.457ZM190.039 85.2291C191.097 88.5767 192.642 91.5832 194.679 94.2404L196.267 93.0236C194.379 90.5608 192.937 87.7646 191.947 84.6269L190.039 85.2291ZM194.692 94.2567C196.83 96.9294 199.459 99.0665 202.568 100.665L203.482 98.8867C200.618 97.4135 198.212 95.4546 196.254 93.0073L194.692 94.2567ZM202.568 100.665C205.715 102.284 209.289 103.08 213.265 103.08V101.08C209.561 101.08 206.308 100.34 203.482 98.8867L202.568 100.665ZM213.265 103.08C217.404 103.08 221.065 102.287 224.218 100.665L223.304 98.8867C220.483 100.337 217.147 101.08 213.265 101.08V103.08ZM224.238 100.655C227.349 98.9663 229.936 96.7379 231.988 93.9718L230.382 92.7802C228.509 95.3048 226.147 97.343 223.284 98.8971L224.238 100.655ZM231.988 93.9718C234.024 91.2284 235.527 88.1763 236.498 84.8221L234.576 84.2659C233.67 87.397 232.272 90.2329 230.382 92.7802L231.988 93.9718ZM236.493 84.8381C237.546 81.4167 238.073 77.947 238.073 74.432H236.073C236.073 77.7436 235.577 81.0152 234.581 84.2499L236.493 84.8381ZM238.073 74.432C238.073 70.8342 237.546 67.3618 236.491 64.0189L234.583 64.6211C235.576 67.7636 236.073 71.0325 236.073 74.432H238.073ZM236.491 64.0189C235.431 60.6631 233.838 57.6512 231.71 54.9913L230.148 56.2407C232.116 58.7008 233.595 61.4916 234.583 64.6211L236.491 64.0189ZM231.72 55.0038C229.578 52.2377 226.94 50.0909 223.814 48.5725L222.94 50.3715C225.787 51.7544 228.184 53.7036 230.138 56.2282L231.72 55.0038ZM223.814 48.5725C220.674 47.0475 217.151 46.296 213.265 46.296V48.296C216.888 48.296 220.106 48.9952 222.94 50.3715L223.814 48.5725ZM213.265 46.296C209.126 46.296 205.465 47.0891 202.312 48.7107L203.226 50.4893C206.047 49.0389 209.383 48.296 213.265 48.296V46.296ZM202.301 48.7162C199.272 50.3201 196.688 52.5042 194.554 55.2598L196.136 56.4842C198.098 53.9491 200.464 51.9519 203.237 50.4838L202.301 48.7162ZM194.551 55.2636C192.511 57.9251 190.965 60.9774 189.909 64.4099L191.821 64.9981C192.813 61.7746 194.254 58.9389 196.139 56.4804L194.551 55.2636ZM189.904 64.4259C188.939 67.76 188.457 71.1816 188.457 74.688H190.457C190.457 71.3677 190.913 68.1333 191.826 64.9821L189.904 64.4259ZM264.245 98.624L264.818 97.8048L263.649 96.9865L263.279 98.3645L264.245 98.624ZM269.621 101.184L269.245 102.11L269.262 102.117L269.279 102.124L269.621 101.184ZM286.773 101.184L286.31 100.297L286.302 100.302L286.294 100.306L286.773 101.184ZM291.125 96.576L290.223 96.1433L290.22 96.1513L290.216 96.1593L291.125 96.576ZM293.173 88.384L294.168 88.486L294.168 88.4835L293.173 88.384ZM293.685 29.12V28.12H292.685V29.12H293.685ZM314.677 29.12H315.677V28.12H314.677V29.12ZM313.525 94.016L314.516 94.1511L314.516 94.1511L313.525 94.016ZM308.789 108.736L307.921 108.24L307.917 108.246L308.789 108.736ZM298.293 118.208L298.707 119.118L298.714 119.115L298.72 119.112L298.293 118.208ZM268.597 120L268.319 120.961L268.319 120.961L268.597 120ZM259.637 115.776L258.671 115.517L258.488 116.199L259.07 116.6L259.637 115.776ZM263.672 99.4432C264.631 100.115 266.527 101.007 269.245 102.11L269.997 100.258C267.253 99.1427 265.565 98.3275 264.818 97.8048L263.672 99.4432ZM269.279 102.124C272.229 103.196 275.634 103.72 279.477 103.72V101.72C275.811 101.72 272.645 101.22 269.963 100.244L269.279 102.124ZM279.477 103.72C282.568 103.72 285.181 103.192 287.252 102.062L286.294 100.306C284.61 101.224 282.359 101.72 279.477 101.72V103.72ZM287.236 102.071C289.399 100.942 291.005 99.2387 292.034 96.9927L290.216 96.1593C289.368 98.0093 288.072 99.3781 286.31 100.297L287.236 102.071ZM292.027 97.0087C293.116 94.738 293.819 91.8851 294.168 88.486L292.178 88.282C291.844 91.5389 291.182 94.1473 290.223 96.1433L292.027 97.0087ZM294.168 88.4835C294.514 85.0271 294.685 80.8961 294.685 76.096H292.685C292.685 80.8533 292.515 84.9142 292.178 88.2845L294.168 88.4835ZM294.685 76.096V29.12H292.685V76.096H294.685ZM293.685 30.12H314.677V28.12H293.685V30.12ZM313.677 29.12V75.328H315.677V29.12H313.677ZM313.677 75.328C313.677 82.1181 313.295 88.3015 312.534 93.8809L314.516 94.1511C315.291 88.4665 315.677 82.1912 315.677 75.328H313.677ZM312.534 93.8809C311.78 99.4083 310.236 104.188 307.921 108.24L309.657 109.232C312.121 104.921 313.734 99.8877 314.516 94.1511L312.534 93.8809ZM307.917 108.246C305.726 112.142 302.392 115.164 297.866 117.304L298.72 119.112C303.581 116.815 307.244 113.522 309.661 109.226L307.917 108.246ZM297.879 117.298C293.366 119.349 287.252 120.408 279.477 120.408V122.408C287.403 122.408 293.834 121.333 298.707 119.118L297.879 117.298ZM279.477 120.408C275.543 120.408 272.012 119.948 268.875 119.039L268.319 120.961C271.667 121.93 275.389 122.408 279.477 122.408V120.408ZM268.875 119.039C265.733 118.13 262.844 116.767 260.204 114.952L259.07 116.6C261.891 118.539 264.975 119.993 268.319 120.961L268.875 119.039ZM260.603 116.035L265.211 98.8835L263.279 98.3645L258.671 115.517L260.603 116.035ZM394.951 101.568H395.951V100.568H394.951V101.568ZM394.951 120V121H395.951V120H394.951ZM331.079 120H330.079V121H331.079V120ZM331.079 29.12V28.12H330.079V29.12H331.079ZM393.799 29.12H394.799V28.12H393.799V29.12ZM393.799 47.552V48.552H394.799V47.552H393.799ZM352.071 47.552V46.552H351.071V47.552H352.071ZM352.071 65.216H351.071V66.216H352.071V65.216ZM387.911 65.216H388.911V64.216H387.911V65.216ZM387.911 82.24V83.24H388.911V82.24H387.911ZM352.071 82.24V81.24H351.071V82.24H352.071ZM352.071 101.568H351.071V102.568H352.071V101.568ZM393.951 101.568V120H395.951V101.568H393.951ZM394.951 119H331.079V121H394.951V119ZM332.079 120V29.12H330.079V120H332.079ZM331.079 30.12H393.799V28.12H331.079V30.12ZM392.799 29.12V47.552H394.799V29.12H392.799ZM393.799 46.552H352.071V48.552H393.799V46.552ZM351.071 47.552V65.216H353.071V47.552H351.071ZM352.071 66.216H387.911V64.216H352.071V66.216ZM386.911 65.216V82.24H388.911V65.216H386.911ZM387.911 81.24H352.071V83.24H387.911V81.24ZM351.071 82.24V101.568H353.071V82.24H351.071ZM352.071 102.568H394.951V100.568H352.071V102.568ZM404.028 57.536L404.961 57.897L404.962 57.892L404.028 57.536ZM412.988 42.944L412.245 42.2742L412.245 42.2742L412.988 42.944ZM427.324 32.576L427.738 33.4864L427.749 33.4811L427.324 32.576ZM468.668 34.112L468.16 34.9736L468.166 34.9766L468.668 34.112ZM482.748 48.448L483.321 49.2678L484.041 48.7646L483.635 47.9854L482.748 48.448ZM466.62 59.712L465.698 60.1001L466.178 61.2402L467.193 60.5318L466.62 59.712ZM461.116 52.16L460.488 52.9379L460.495 52.9437L460.502 52.9493L461.116 52.16ZM453.692 48.448L453.413 49.4083L453.431 49.4136L453.449 49.4181L453.692 48.448ZM435.516 49.728L435.973 50.6173L435.983 50.6122L435.993 50.6069L435.516 49.728ZM428.092 56L428.895 56.5958L428.895 56.5958L428.092 56ZM423.74 64.832L424.701 65.1101L424.701 65.1101L423.74 64.832ZM423.996 84.928L424.945 84.6118L424.945 84.6118L423.996 84.928ZM428.732 93.76L427.951 94.3847L427.957 94.3925L427.964 94.4002L428.732 93.76ZM436.412 99.904L435.955 100.793L435.965 100.799L435.975 100.804L436.412 99.904ZM454.076 100.8L454.383 101.752L454.383 101.752L454.076 100.8ZM461.372 96.832L462 97.6099L462.004 97.6072L461.372 96.832ZM466.62 89.536L467.128 88.6746L466.124 88.0829L465.692 89.1646L466.62 89.536ZM483.772 99.648L484.699 100.022L485.022 99.2239L484.28 98.7866L483.772 99.648ZM474.94 111.04L474.329 110.248L474.329 110.248L474.94 111.04ZM460.988 118.336L461.29 119.289L461.3 119.286L460.988 118.336ZM427.58 116.8L427.133 117.694L427.141 117.699L427.15 117.703L427.58 116.8ZM413.372 106.048L412.617 106.703L412.623 106.711L412.63 106.719L413.372 106.048ZM404.156 90.944L403.221 91.2982L403.224 91.3068L403.228 91.3154L404.156 90.944ZM401.956 73.792C401.956 68.3716 402.956 63.0752 404.961 57.897L403.095 57.175C401.004 62.5781 399.956 68.119 399.956 73.792H401.956ZM404.962 57.892C406.966 52.6337 409.886 47.8757 413.731 43.6138L412.245 42.2742C408.239 46.7163 405.186 51.6863 403.094 57.18L404.962 57.892ZM413.731 43.6138C417.559 39.3693 422.224 35.9928 427.738 33.4864L426.91 31.6656C421.16 34.2792 416.268 37.8147 412.245 42.2742L413.731 43.6138ZM427.749 33.4811C433.229 30.9071 439.481 29.608 446.524 29.608V27.608C439.231 27.608 432.683 28.9542 426.899 31.6709L427.749 33.4811ZM446.524 29.608C454.911 29.608 462.111 31.41 468.16 34.9736L469.176 33.2504C462.767 29.4753 455.203 27.608 446.524 27.608V29.608ZM468.166 34.9766C474.334 38.5608 478.886 43.2067 481.861 48.9106L483.635 47.9854C480.467 41.9133 475.632 37.0019 469.17 33.2474L468.166 34.9766ZM482.175 47.6282L466.047 58.8922L467.193 60.5318L483.321 49.2678L482.175 47.6282ZM467.542 59.3239C466.123 55.9557 464.194 53.2875 461.73 51.3706L460.502 52.9493C462.646 54.6165 464.386 56.983 465.698 60.1001L467.542 59.3239ZM461.744 51.3821C459.414 49.5 456.808 48.1963 453.935 47.4779L453.449 49.4181C456.037 50.0651 458.381 51.236 460.488 52.9379L461.744 51.3821ZM453.971 47.4877C451.245 46.6963 448.591 46.296 446.012 46.296V48.296C448.382 48.296 450.848 48.6637 453.413 49.4083L453.971 47.4877ZM446.012 46.296C441.865 46.296 438.196 47.1351 435.039 48.8491L435.993 50.6069C438.809 49.0782 442.138 48.296 446.012 48.296V46.296ZM435.059 48.8387C431.939 50.4433 429.345 52.6333 427.289 55.4042L428.895 56.5958C430.765 54.076 433.12 52.0847 435.973 50.6173L435.059 48.8387ZM427.289 55.4042C425.253 58.1476 423.75 61.1997 422.779 64.5539L424.701 65.1101C425.607 61.979 427.005 59.1431 428.895 56.5958L427.289 55.4042ZM422.779 64.5539C421.816 67.8832 421.332 71.2194 421.332 74.56H423.332C423.332 71.4152 423.787 68.2661 424.701 65.1101L422.779 64.5539ZM421.332 74.56C421.332 78.2491 421.903 81.812 423.047 85.2442L424.945 84.6118C423.87 81.388 423.332 78.0389 423.332 74.56H421.332ZM423.047 85.2442C424.191 88.6763 425.824 91.7263 427.951 94.3847L429.513 93.1353C427.544 90.6737 426.019 87.8357 424.945 84.6118L423.047 85.2442ZM427.964 94.4002C430.184 97.0641 432.85 99.1964 435.955 100.793L436.869 99.0147C434.001 97.5396 431.547 95.5759 429.5 93.1198L427.964 94.4002ZM435.975 100.804C439.109 102.325 442.545 103.08 446.268 103.08V101.08C442.823 101.08 439.689 100.384 436.849 99.0045L435.975 100.804ZM446.268 103.08C448.941 103.08 451.647 102.634 454.383 101.752L453.769 99.8483C451.214 100.672 448.715 101.08 446.268 101.08V103.08ZM454.383 101.752C457.148 100.86 459.689 99.4771 462 97.6099L460.744 96.0541C458.618 97.7709 456.294 99.0336 453.769 99.8483L454.383 101.752ZM462.004 97.6072C464.45 95.6139 466.296 93.0383 467.548 89.9074L465.692 89.1646C464.555 92.007 462.902 94.2954 460.74 96.0568L462.004 97.6072ZM466.112 90.3974L483.264 100.509L484.28 98.7866L467.128 88.6746L466.112 90.3974ZM482.845 99.2735C481.125 103.533 478.296 107.19 474.329 110.248L475.551 111.832C479.776 108.575 482.835 104.638 484.699 100.022L482.845 99.2735ZM474.329 110.248C470.329 113.332 465.78 115.712 460.676 117.386L461.3 119.286C466.606 117.546 471.359 115.063 475.551 111.832L474.329 110.248ZM460.686 117.383C455.657 118.975 450.682 119.768 445.756 119.768V121.768C450.9 121.768 456.079 120.94 461.29 119.289L460.686 117.383ZM445.756 119.768C439.324 119.768 433.414 118.474 428.01 115.897L427.15 117.703C432.84 120.416 439.047 121.768 445.756 121.768V119.768ZM428.027 115.906C422.675 113.229 418.039 109.721 414.114 105.377L412.63 106.719C416.726 111.25 421.563 114.909 427.133 117.694L428.027 115.906ZM414.127 105.393C410.275 100.954 407.262 96.0153 405.084 90.5726L403.228 91.3154C405.488 96.966 408.618 102.097 412.617 106.703L414.127 105.393ZM405.091 90.5898C402.999 85.0666 401.956 79.4691 401.956 73.792H399.956C399.956 79.7203 401.046 85.5574 403.221 91.2982L405.091 90.5898ZM563.577 47.552V48.552H564.577V47.552H563.577ZM535.929 47.552V46.552H534.929V47.552H535.929ZM535.929 120V121H536.929V120H535.929ZM514.937 120H513.937V121H514.937V120ZM514.937 47.552H515.937V46.552H514.937V47.552ZM487.161 47.552H486.161V48.552H487.161V47.552ZM487.161 29.12V28.12H486.161V29.12H487.161ZM563.577 29.12H564.577V28.12H563.577V29.12ZM563.577 46.552H535.929V48.552H563.577V46.552ZM534.929 47.552V120H536.929V47.552H534.929ZM535.929 119H514.937V121H535.929V119ZM515.937 120V47.552H513.937V120H515.937ZM514.937 46.552H487.161V48.552H514.937V46.552ZM488.161 47.552V29.12H486.161V47.552H488.161ZM487.161 30.12H563.577V28.12H487.161V30.12ZM562.577 29.12V47.552H564.577V29.12H562.577ZM628.357 55.744L627.5 56.2585L628.411 57.7784L629.241 56.2119L628.357 55.744ZM625.669 53.824L625.148 54.6773L625.165 54.6881L625.183 54.6982L625.669 53.824ZM619.909 50.88L620.315 49.9662L620.315 49.9662L619.909 50.88ZM595.845 48.96L596.365 49.8142L596.378 49.8061L596.391 49.7976L595.845 48.96ZM595.077 59.456L594.441 60.2279L594.452 60.2368L594.463 60.2453L595.077 59.456ZM601.605 62.656L601.289 63.6047L601.302 63.609L601.315 63.613L601.605 62.656ZM611.973 65.728L611.693 66.688L611.705 66.6915L611.717 66.6947L611.973 65.728ZM627.077 71.36L626.616 72.2472L626.623 72.2509L626.63 72.2544L627.077 71.36ZM636.805 79.68L635.967 80.225L635.971 80.2323L635.976 80.2395L636.805 79.68ZM637.445 106.304L638.326 106.777L638.331 106.768L637.445 106.304ZM629.765 114.88L630.325 115.709L630.33 115.705L629.765 114.88ZM618.885 119.616L619.108 120.591L619.118 120.589L619.128 120.586L618.885 119.616ZM592.517 119.744L592.317 120.724L592.328 120.726L592.338 120.728L592.517 119.744ZM579.205 115.904L578.834 116.832L578.842 116.836L578.85 116.839L579.205 115.904ZM567.429 109.76L566.536 109.31L566.138 110.101L566.874 110.592L567.429 109.76ZM576.645 91.456L577.426 90.8313L576.453 89.6146L575.752 91.0063L576.645 91.456ZM579.973 93.888L579.436 94.7317L579.45 94.7405L579.464 94.7489L579.973 93.888ZM586.885 97.472L586.461 98.3775L586.477 98.3853L586.494 98.3926L586.885 97.472ZM596.229 100.672L596.494 99.7078L596.494 99.7078L596.229 100.672ZM614.917 100.288L614.38 99.4443L614.371 99.45L614.362 99.4559L614.917 100.288ZM614.789 89.92L614.226 90.7462L614.234 90.752L614.243 90.7576L614.789 89.92ZM606.981 86.464L606.68 87.4176L606.687 87.4198L606.981 86.464ZM595.717 83.008L595.423 83.9638L595.43 83.9658L595.717 83.008ZM581.893 77.248L581.381 78.1073L581.39 78.1125L581.893 77.248ZM573.829 69.44L572.955 69.9256L572.96 69.9348L572.965 69.9439L573.829 69.44ZM575.749 41.792L574.927 41.2228L574.924 41.2262L575.749 41.792ZM588.037 31.808L588.435 32.7256L588.447 32.7199L588.037 31.808ZM617.093 29.888L616.841 30.8556L616.846 30.8569L617.093 29.888ZM628.229 33.728L627.819 34.64L627.827 34.6436L628.229 33.728ZM637.573 38.336L638.457 38.8039L638.913 37.9423L638.063 37.4644L637.573 38.336ZM629.214 55.2295C628.971 54.8243 628.531 54.4564 628.074 54.1303C627.583 53.7794 626.939 53.3854 626.155 52.9498L625.183 54.6982C625.935 55.1159 626.507 55.4686 626.912 55.7577C627.114 55.9021 627.262 56.022 627.366 56.1178C627.475 56.2193 627.504 56.2657 627.5 56.2585L629.214 55.2295ZM626.19 52.9707C624.606 52.0024 622.644 51.0014 620.315 49.9662L619.503 51.7938C621.782 52.8066 623.66 53.7682 625.148 54.6773L626.19 52.9707ZM620.315 49.9662C617.962 48.9204 615.399 48.0088 612.628 47.2293L612.086 49.1546C614.776 49.9112 617.248 50.7916 619.503 51.7938L620.315 49.9662ZM612.628 47.2293C609.812 46.4375 606.991 46.04 604.165 46.04V48.04C606.801 48.04 609.44 48.4105 612.086 49.1546L612.628 47.2293ZM604.165 46.04C600.482 46.04 597.489 46.6942 595.299 48.1224L596.391 49.7976C598.127 48.6658 600.68 48.04 604.165 48.04V46.04ZM595.325 48.1058C593.026 49.5054 591.901 51.7307 591.901 54.592H593.901C593.901 52.3333 594.739 50.8039 596.365 49.8142L595.325 48.1058ZM591.901 54.592C591.901 56.9083 592.737 58.8247 594.441 60.2279L595.713 58.6841C594.515 57.698 593.901 56.3717 593.901 54.592H591.901ZM594.463 60.2453C596.123 61.5361 598.416 62.647 601.289 63.6047L601.921 61.7073C599.162 60.7877 597.103 59.7652 595.691 58.6666L594.463 60.2453ZM601.315 63.613C604.135 64.4677 607.595 65.4927 611.693 66.688L612.253 64.768C608.159 63.5739 604.707 62.551 601.895 61.699L601.315 63.613ZM611.717 66.6947C617.465 68.2163 622.428 70.0697 626.616 72.2472L627.538 70.4728C623.193 68.213 618.086 66.3117 612.229 64.7613L611.717 66.6947ZM626.63 72.2544C630.765 74.322 633.86 76.9848 635.967 80.225L637.643 79.135C635.312 75.5485 631.922 72.6647 627.524 70.4656L626.63 72.2544ZM635.976 80.2395C638.134 83.437 639.261 87.7441 639.261 93.248H641.261C641.261 87.4879 640.084 82.7497 637.634 79.1205L635.976 80.2395ZM639.261 93.248C639.261 98.2483 638.344 102.432 636.559 105.84L638.331 106.768C640.3 103.008 641.261 98.4877 641.261 93.248H639.261ZM636.564 105.831C634.761 109.19 632.309 111.927 629.2 114.055L630.33 115.705C633.706 113.395 636.374 110.415 638.326 106.777L636.564 105.831ZM629.205 114.051C626.154 116.113 622.637 117.647 618.642 118.646L619.128 120.586C623.325 119.537 627.061 117.914 630.325 115.709L629.205 114.051ZM618.662 118.641C614.641 119.563 610.493 120.024 606.213 120.024V122.024C610.637 122.024 614.937 121.547 619.108 120.591L618.662 118.641ZM606.213 120.024C601.84 120.024 597.335 119.604 592.696 118.76L592.338 120.728C597.086 121.591 601.711 122.024 606.213 122.024V120.024ZM592.717 118.764C588.16 117.836 583.775 116.571 579.56 114.969L578.85 116.839C583.169 118.48 587.658 119.775 592.317 120.724L592.717 118.764ZM579.576 114.976C575.37 113.293 571.506 111.276 567.984 108.928L566.874 110.592C570.52 113.022 574.507 115.102 578.834 116.832L579.576 114.976ZM568.322 110.21L577.538 91.9057L575.752 91.0063L566.536 109.31L568.322 110.21ZM575.864 92.0807C576.128 92.4104 576.593 92.7892 577.143 93.1914C577.722 93.6147 578.489 94.1289 579.436 94.7317L580.51 93.0443C579.58 92.4524 578.853 91.964 578.323 91.5766C577.764 91.1682 577.503 90.9283 577.426 90.8313L575.864 92.0807ZM579.464 94.7489C581.377 95.8792 583.711 97.0887 586.461 98.3775L587.309 96.5665C584.598 95.2953 582.324 94.1154 580.482 93.0271L579.464 94.7489ZM586.494 98.3926C589.357 99.607 592.514 100.688 595.964 101.636L596.494 99.7078C593.117 98.7791 590.045 97.7263 587.276 96.5514L586.494 98.3926ZM595.964 101.636C599.463 102.598 603.008 103.08 606.597 103.08V101.08C603.189 101.08 599.822 100.623 596.494 99.7078L595.964 101.636ZM606.597 103.08C610.42 103.08 613.433 102.479 615.472 101.12L614.362 99.4559C612.817 100.486 610.284 101.08 606.597 101.08V103.08ZM615.454 101.132C617.605 99.763 618.733 97.7886 618.733 95.296H616.733C616.733 97.07 615.984 98.4237 614.38 99.4443L615.454 101.132ZM618.733 95.296C618.733 92.6472 617.575 90.5432 615.335 89.0824L614.243 90.7576C615.928 91.8568 616.733 93.3368 616.733 95.296H618.733ZM615.352 89.0938C613.361 87.7358 610.654 86.5478 607.275 85.5082L606.687 87.4198C609.964 88.4282 612.463 89.5442 614.226 90.7462L615.352 89.0938ZM607.282 85.5104C604.034 84.4846 600.274 83.3312 596.004 82.0502L595.43 83.9658C599.693 85.2448 603.443 86.3954 606.68 87.4176L607.282 85.5104ZM596.011 82.0522C590.513 80.3604 585.98 78.4675 582.396 76.3835L581.39 78.1125C585.145 80.2952 589.828 82.2423 595.423 83.9638L596.011 82.0522ZM582.404 76.3887C578.941 74.327 576.386 71.8382 574.693 68.9361L572.965 69.9439C574.856 73.1858 577.677 75.9023 581.382 78.1073L582.404 76.3887ZM574.703 68.9544C573.101 66.0701 572.269 62.4093 572.269 57.92H570.269C570.269 62.6467 571.144 66.6659 572.955 69.9256L574.703 68.9544ZM572.269 57.92C572.269 51.6784 573.724 46.5107 576.574 42.3578L574.924 41.2262C571.801 45.7773 570.269 51.3616 570.269 57.92H572.269ZM576.571 42.3612C579.533 38.0827 583.48 34.8727 588.435 32.7256L587.639 30.8904C582.354 33.1807 578.109 36.6266 574.927 41.2228L576.571 42.3612ZM588.447 32.7199C593.428 30.4785 598.876 29.352 604.805 29.352V27.352C598.616 27.352 592.886 28.5295 587.627 30.8961L588.447 32.7199ZM604.805 29.352C608.991 29.352 613.002 29.8542 616.841 30.8556L617.345 28.9204C613.334 27.8738 609.152 27.352 604.805 27.352V29.352ZM616.846 30.8569C620.806 31.8681 624.463 33.1299 627.819 34.6399L628.639 32.8161C625.168 31.2541 621.401 29.9559 617.34 28.9191L616.846 30.8569ZM627.827 34.6436C631.302 36.1692 634.386 37.6907 637.083 39.2076L638.063 37.4644C635.299 35.9092 632.154 34.3588 628.631 32.8124L627.827 34.6436ZM636.689 37.8681L627.473 55.2761L629.241 56.2119L638.457 38.8039L636.689 37.8681Z" fill="#005147"/>
<path d="M400.456 73.792C400.456 68.2453 401.48 62.8267 403.528 57.536C405.576 52.16 408.563 47.296 412.488 42.944C416.413 38.592 421.192 35.136 426.824 32.576C432.456 29.9307 438.856 28.608 446.024 28.608C454.557 28.608 461.939 30.4427 468.168 34.112C474.483 37.7813 479.176 42.56 482.248 48.448L466.12 59.712C464.755 56.4693 462.92 53.952 460.616 52.16C458.397 50.368 455.923 49.1307 453.192 48.448C450.547 47.68 447.987 47.296 445.512 47.296C441.501 47.296 438.003 48.1067 435.016 49.728C432.029 51.264 429.555 53.3547 427.592 56C425.629 58.6453 424.179 61.5893 423.24 64.832C422.301 68.0747 421.832 71.3173 421.832 74.56C421.832 78.144 422.387 81.6 423.496 84.928C424.605 88.256 426.184 91.2 428.232 93.76C430.365 96.32 432.925 98.368 435.912 99.904C438.899 101.355 442.184 102.08 445.768 102.08C448.328 102.08 450.931 101.653 453.576 100.8C456.221 99.9467 458.653 98.624 460.872 96.832C463.176 94.9547 464.925 92.5227 466.12 89.536L483.272 99.648C481.48 104.085 478.536 107.883 474.44 111.04C470.344 114.197 465.693 116.629 460.488 118.336C455.368 119.957 450.291 120.768 445.256 120.768C438.685 120.768 432.627 119.445 427.08 116.8C421.619 114.069 416.883 110.485 412.872 106.048C408.947 101.525 405.875 96.4907 403.656 90.944C401.523 85.312 400.456 79.5947 400.456 73.792ZM563.077 47.552H535.429V120H514.437V47.552H486.661V29.12H563.077V47.552ZM627.857 55.744C627.601 55.3173 626.705 54.6773 625.169 53.824C623.633 52.8853 621.713 51.904 619.409 50.88C617.105 49.856 614.588 48.96 611.857 48.192C609.126 47.424 606.396 47.04 603.665 47.04C600.081 47.04 597.308 47.68 595.345 48.96C593.382 50.1547 592.401 52.032 592.401 54.592C592.401 56.64 593.126 58.2613 594.577 59.456C596.113 60.6507 598.289 61.7173 601.105 62.656C603.921 63.5093 607.377 64.5333 611.473 65.728C617.276 67.264 622.31 69.1413 626.577 71.36C630.844 73.4933 634.086 76.2667 636.305 79.68C638.609 83.0933 639.761 87.616 639.761 93.248C639.761 98.368 638.822 102.72 636.945 106.304C635.068 109.803 632.508 112.661 629.265 114.88C626.108 117.013 622.481 118.592 618.385 119.616C614.289 120.555 610.065 121.024 605.713 121.024C601.276 121.024 596.71 120.597 592.017 119.744C587.409 118.805 582.972 117.525 578.705 115.904C574.438 114.197 570.513 112.149 566.929 109.76L576.145 91.456C576.486 91.8827 577.596 92.6933 579.473 93.888C581.35 94.9973 583.654 96.192 586.385 97.472C589.201 98.6667 592.316 99.7333 595.729 100.672C599.142 101.611 602.598 102.08 606.097 102.08C609.852 102.08 612.625 101.483 614.417 100.288C616.294 99.0933 617.233 97.4293 617.233 95.296C617.233 92.992 616.252 91.2 614.289 89.92C612.412 88.64 609.809 87.488 606.481 86.464C603.238 85.44 599.484 84.288 595.217 83.008C589.67 81.3013 585.062 79.3813 581.393 77.248C577.809 75.1147 575.121 72.512 573.329 69.44C571.622 66.368 570.769 62.528 570.769 57.92C570.769 51.52 572.262 46.144 575.249 41.792C578.321 37.3547 582.417 34.0267 587.537 31.808C592.657 29.504 598.246 28.352 604.305 28.352C608.572 28.352 612.668 28.864 616.593 29.888C620.604 30.912 624.316 32.192 627.729 33.728C631.228 35.264 634.342 36.8 637.073 38.336L627.857 55.744Z" fill="white"/>
<path d="M403.528 57.536L404.461 57.897L404.462 57.892L403.528 57.536ZM412.488 42.944L411.745 42.2742L411.745 42.2742L412.488 42.944ZM426.824 32.576L427.238 33.4864L427.249 33.4811L426.824 32.576ZM468.168 34.112L467.66 34.9736L467.666 34.9766L468.168 34.112ZM482.248 48.448L482.821 49.2678L483.541 48.7646L483.135 47.9854L482.248 48.448ZM466.12 59.712L465.198 60.1001L465.678 61.2402L466.693 60.5318L466.12 59.712ZM460.616 52.16L459.988 52.9379L459.995 52.9437L460.002 52.9493L460.616 52.16ZM453.192 48.448L452.913 49.4083L452.931 49.4136L452.949 49.4181L453.192 48.448ZM435.016 49.728L435.473 50.6173L435.483 50.6122L435.493 50.6069L435.016 49.728ZM427.592 56L428.395 56.5958L428.395 56.5958L427.592 56ZM423.24 64.832L424.201 65.1101L424.201 65.1101L423.24 64.832ZM423.496 84.928L424.445 84.6118L424.445 84.6118L423.496 84.928ZM428.232 93.76L427.451 94.3847L427.457 94.3925L427.464 94.4002L428.232 93.76ZM435.912 99.904L435.455 100.793L435.465 100.799L435.475 100.804L435.912 99.904ZM453.576 100.8L453.883 101.752L453.883 101.752L453.576 100.8ZM460.872 96.832L461.5 97.6099L461.504 97.6072L460.872 96.832ZM466.12 89.536L466.628 88.6746L465.624 88.0829L465.192 89.1646L466.12 89.536ZM483.272 99.648L484.199 100.022L484.522 99.2239L483.78 98.7866L483.272 99.648ZM474.44 111.04L473.829 110.248L473.829 110.248L474.44 111.04ZM460.488 118.336L460.79 119.289L460.8 119.286L460.488 118.336ZM427.08 116.8L426.633 117.694L426.641 117.699L426.65 117.703L427.08 116.8ZM412.872 106.048L412.117 106.703L412.123 106.711L412.13 106.719L412.872 106.048ZM403.656 90.944L402.721 91.2982L402.724 91.3068L402.728 91.3154L403.656 90.944ZM401.456 73.792C401.456 68.3716 402.456 63.0752 404.461 57.897L402.595 57.175C400.504 62.5781 399.456 68.119 399.456 73.792H401.456ZM404.462 57.892C406.466 52.6337 409.386 47.8757 413.231 43.6138L411.745 42.2742C407.739 46.7163 404.686 51.6863 402.594 57.18L404.462 57.892ZM413.231 43.6138C417.059 39.3693 421.724 35.9928 427.238 33.4864L426.41 31.6656C420.66 34.2792 415.768 37.8147 411.745 42.2742L413.231 43.6138ZM427.249 33.4811C432.729 30.9071 438.981 29.608 446.024 29.608V27.608C438.731 27.608 432.183 28.9542 426.399 31.6709L427.249 33.4811ZM446.024 29.608C454.411 29.608 461.611 31.41 467.66 34.9736L468.676 33.2504C462.267 29.4753 454.703 27.608 446.024 27.608V29.608ZM467.666 34.9766C473.834 38.5608 478.386 43.2067 481.361 48.9106L483.135 47.9854C479.967 41.9133 475.132 37.0019 468.67 33.2474L467.666 34.9766ZM481.675 47.6282L465.547 58.8922L466.693 60.5318L482.821 49.2678L481.675 47.6282ZM467.042 59.3239C465.623 55.9557 463.694 53.2875 461.23 51.3706L460.002 52.9493C462.146 54.6165 463.886 56.983 465.198 60.1001L467.042 59.3239ZM461.244 51.3821C458.914 49.5 456.308 48.1963 453.435 47.4779L452.949 49.4181C455.537 50.0651 457.881 51.236 459.988 52.9379L461.244 51.3821ZM453.471 47.4877C450.745 46.6963 448.091 46.296 445.512 46.296V48.296C447.882 48.296 450.348 48.6637 452.913 49.4083L453.471 47.4877ZM445.512 46.296C441.365 46.296 437.696 47.1351 434.539 48.8491L435.493 50.6069C438.309 49.0782 441.638 48.296 445.512 48.296V46.296ZM434.559 48.8387C431.439 50.4433 428.845 52.6333 426.789 55.4042L428.395 56.5958C430.265 54.076 432.62 52.0847 435.473 50.6173L434.559 48.8387ZM426.789 55.4042C424.753 58.1476 423.25 61.1997 422.279 64.5539L424.201 65.1101C425.107 61.979 426.505 59.1431 428.395 56.5958L426.789 55.4042ZM422.279 64.5539C421.316 67.8832 420.832 71.2194 420.832 74.56H422.832C422.832 71.4152 423.287 68.2661 424.201 65.1101L422.279 64.5539ZM420.832 74.56C420.832 78.2491 421.403 81.812 422.547 85.2442L424.445 84.6118C423.37 81.388 422.832 78.0389 422.832 74.56H420.832ZM422.547 85.2442C423.691 88.6763 425.324 91.7263 427.451 94.3847L429.013 93.1353C427.044 90.6737 425.519 87.8357 424.445 84.6118L422.547 85.2442ZM427.464 94.4002C429.684 97.0641 432.35 99.1964 435.455 100.793L436.369 99.0147C433.501 97.5396 431.047 95.5759 429 93.1198L427.464 94.4002ZM435.475 100.804C438.609 102.325 442.045 103.08 445.768 103.08V101.08C442.323 101.08 439.189 100.384 436.349 99.0045L435.475 100.804ZM445.768 103.08C448.441 103.08 451.147 102.634 453.883 101.752L453.269 99.8483C450.714 100.672 448.215 101.08 445.768 101.08V103.08ZM453.883 101.752C456.648 100.86 459.189 99.4771 461.5 97.6099L460.244 96.0541C458.118 97.7709 455.794 99.0336 453.269 99.8483L453.883 101.752ZM461.504 97.6072C463.95 95.6139 465.796 93.0383 467.048 89.9074L465.192 89.1646C464.055 92.007 462.402 94.2954 460.24 96.0568L461.504 97.6072ZM465.612 90.3974L482.764 100.509L483.78 98.7866L466.628 88.6746L465.612 90.3974ZM482.345 99.2735C480.625 103.533 477.796 107.19 473.829 110.248L475.051 111.832C479.276 108.575 482.335 104.638 484.199 100.022L482.345 99.2735ZM473.829 110.248C469.829 113.332 465.28 115.712 460.176 117.386L460.8 119.286C466.106 117.546 470.859 115.063 475.051 111.832L473.829 110.248ZM460.186 117.383C455.157 118.975 450.182 119.768 445.256 119.768V121.768C450.4 121.768 455.579 120.94 460.79 119.289L460.186 117.383ZM445.256 119.768C438.824 119.768 432.914 118.474 427.51 115.897L426.65 117.703C432.34 120.416 438.547 121.768 445.256 121.768V119.768ZM427.527 115.906C422.175 113.229 417.539 109.721 413.614 105.377L412.13 106.719C416.226 111.25 421.063 114.909 426.633 117.694L427.527 115.906ZM413.627 105.393C409.775 100.954 406.762 96.0153 404.584 90.5726L402.728 91.3154C404.988 96.966 408.118 102.097 412.117 106.703L413.627 105.393ZM404.591 90.5898C402.499 85.0666 401.456 79.4691 401.456 73.792H399.456C399.456 79.7203 400.546 85.5574 402.721 91.2982L404.591 90.5898ZM563.077 47.552V48.552H564.077V47.552H563.077ZM535.429 47.552V46.552H534.429V47.552H535.429ZM535.429 120V121H536.429V120H535.429ZM514.437 120H513.437V121H514.437V120ZM514.437 47.552H515.437V46.552H514.437V47.552ZM486.661 47.552H485.661V48.552H486.661V47.552ZM486.661 29.12V28.12H485.661V29.12H486.661ZM563.077 29.12H564.077V28.12H563.077V29.12ZM563.077 46.552H535.429V48.552H563.077V46.552ZM534.429 47.552V120H536.429V47.552H534.429ZM535.429 119H514.437V121H535.429V119ZM515.437 120V47.552H513.437V120H515.437ZM514.437 46.552H486.661V48.552H514.437V46.552ZM487.661 47.552V29.12H485.661V47.552H487.661ZM486.661 30.12H563.077V28.12H486.661V30.12ZM562.077 29.12V47.552H564.077V29.12H562.077ZM627.857 55.744L627 56.2585L627.911 57.7784L628.741 56.2119L627.857 55.744ZM625.169 53.824L624.648 54.6773L624.665 54.6881L624.683 54.6982L625.169 53.824ZM619.409 50.88L619.815 49.9662L619.815 49.9662L619.409 50.88ZM595.345 48.96L595.865 49.8142L595.878 49.8061L595.891 49.7976L595.345 48.96ZM594.577 59.456L593.941 60.2279L593.952 60.2368L593.963 60.2453L594.577 59.456ZM601.105 62.656L600.789 63.6047L600.802 63.609L600.815 63.613L601.105 62.656ZM611.473 65.728L611.193 66.688L611.205 66.6915L611.217 66.6947L611.473 65.728ZM626.577 71.36L626.116 72.2472L626.123 72.2509L626.13 72.2544L626.577 71.36ZM636.305 79.68L635.467 80.225L635.471 80.2323L635.476 80.2395L636.305 79.68ZM636.945 106.304L637.826 106.777L637.831 106.768L636.945 106.304ZM629.265 114.88L629.825 115.709L629.83 115.705L629.265 114.88ZM618.385 119.616L618.608 120.591L618.618 120.589L618.628 120.586L618.385 119.616ZM592.017 119.744L591.817 120.724L591.828 120.726L591.838 120.728L592.017 119.744ZM578.705 115.904L578.334 116.832L578.342 116.836L578.35 116.839L578.705 115.904ZM566.929 109.76L566.036 109.31L565.638 110.101L566.374 110.592L566.929 109.76ZM576.145 91.456L576.926 90.8313L575.953 89.6146L575.252 91.0063L576.145 91.456ZM579.473 93.888L578.936 94.7317L578.95 94.7405L578.964 94.7489L579.473 93.888ZM586.385 97.472L585.961 98.3775L585.977 98.3853L585.994 98.3926L586.385 97.472ZM595.729 100.672L595.994 99.7078L595.994 99.7078L595.729 100.672ZM614.417 100.288L613.88 99.4443L613.871 99.45L613.862 99.4559L614.417 100.288ZM614.289 89.92L613.726 90.7462L613.734 90.752L613.743 90.7576L614.289 89.92ZM606.481 86.464L606.18 87.4176L606.187 87.4198L606.481 86.464ZM595.217 83.008L594.923 83.9638L594.93 83.9658L595.217 83.008ZM581.393 77.248L580.881 78.1073L580.89 78.1125L581.393 77.248ZM573.329 69.44L572.455 69.9256L572.46 69.9348L572.465 69.9439L573.329 69.44ZM575.249 41.792L574.427 41.2228L574.424 41.2262L575.249 41.792ZM587.537 31.808L587.935 32.7256L587.947 32.7199L587.537 31.808ZM616.593 29.888L616.341 30.8556L616.346 30.8569L616.593 29.888ZM627.729 33.728L627.319 34.64L627.327 34.6436L627.729 33.728ZM637.073 38.336L637.957 38.8039L638.413 37.9423L637.563 37.4644L637.073 38.336ZM628.714 55.2295C628.471 54.8243 628.031 54.4564 627.574 54.1303C627.083 53.7794 626.439 53.3854 625.655 52.9498L624.683 54.6982C625.435 55.1159 626.007 55.4686 626.412 55.7577C626.614 55.9021 626.762 56.022 626.866 56.1178C626.975 56.2193 627.004 56.2657 627 56.2585L628.714 55.2295ZM625.69 52.9707C624.106 52.0024 622.144 51.0014 619.815 49.9662L619.003 51.7938C621.282 52.8066 623.16 53.7682 624.648 54.6773L625.69 52.9707ZM619.815 49.9662C617.462 48.9204 614.899 48.0088 612.128 47.2293L611.586 49.1546C614.276 49.9112 616.748 50.7916 619.003 51.7938L619.815 49.9662ZM612.128 47.2293C609.312 46.4375 606.491 46.04 603.665 46.04V48.04C606.301 48.04 608.94 48.4105 611.586 49.1546L612.128 47.2293ZM603.665 46.04C599.982 46.04 596.989 46.6942 594.799 48.1224L595.891 49.7976C597.627 48.6658 600.18 48.04 603.665 48.04V46.04ZM594.825 48.1058C592.526 49.5054 591.401 51.7307 591.401 54.592H593.401C593.401 52.3333 594.239 50.8039 595.865 49.8142L594.825 48.1058ZM591.401 54.592C591.401 56.9083 592.237 58.8247 593.941 60.2279L595.213 58.6841C594.015 57.698 593.401 56.3717 593.401 54.592H591.401ZM593.963 60.2453C595.623 61.5361 597.916 62.647 600.789 63.6047L601.421 61.7073C598.662 60.7877 596.603 59.7652 595.191 58.6666L593.963 60.2453ZM600.815 63.613C603.635 64.4677 607.095 65.4927 611.193 66.688L611.753 64.768C607.659 63.5739 604.207 62.551 601.395 61.699L600.815 63.613ZM611.217 66.6947C616.965 68.2163 621.928 70.0697 626.116 72.2472L627.038 70.4728C622.693 68.213 617.586 66.3117 611.729 64.7613L611.217 66.6947ZM626.13 72.2544C630.265 74.322 633.36 76.9848 635.467 80.225L637.143 79.135C634.812 75.5485 631.422 72.6647 627.024 70.4656L626.13 72.2544ZM635.476 80.2395C637.634 83.437 638.761 87.7441 638.761 93.248H640.761C640.761 87.4879 639.584 82.7497 637.134 79.1205L635.476 80.2395ZM638.761 93.248C638.761 98.2483 637.844 102.432 636.059 105.84L637.831 106.768C639.8 103.008 640.761 98.4877 640.761 93.248H638.761ZM636.064 105.831C634.261 109.19 631.809 111.927 628.7 114.055L629.83 115.705C633.206 113.395 635.874 110.415 637.826 106.777L636.064 105.831ZM628.705 114.051C625.654 116.113 622.137 117.647 618.142 118.646L618.628 120.586C622.825 119.537 626.561 117.914 629.825 115.709L628.705 114.051ZM618.162 118.641C614.141 119.563 609.993 120.024 605.713 120.024V122.024C610.137 122.024 614.437 121.547 618.608 120.591L618.162 118.641ZM605.713 120.024C601.34 120.024 596.835 119.604 592.196 118.76L591.838 120.728C596.586 121.591 601.211 122.024 605.713 122.024V120.024ZM592.217 118.764C587.66 117.836 583.275 116.571 579.06 114.969L578.35 116.839C582.669 118.48 587.158 119.775 591.817 120.724L592.217 118.764ZM579.076 114.976C574.87 113.293 571.006 111.276 567.484 108.928L566.374 110.592C570.02 113.022 574.007 115.102 578.334 116.832L579.076 114.976ZM567.822 110.21L577.038 91.9057L575.252 91.0063L566.036 109.31L567.822 110.21ZM575.364 92.0807C575.628 92.4104 576.093 92.7892 576.643 93.1914C577.222 93.6147 577.989 94.1289 578.936 94.7317L580.01 93.0443C579.08 92.4524 578.353 91.964 577.823 91.5766C577.264 91.1682 577.003 90.9283 576.926 90.8313L575.364 92.0807ZM578.964 94.7489C580.877 95.8792 583.211 97.0887 585.961 98.3775L586.809 96.5665C584.098 95.2953 581.824 94.1154 579.982 93.0271L578.964 94.7489ZM585.994 98.3926C588.857 99.607 592.014 100.688 595.464 101.636L595.994 99.7078C592.617 98.7791 589.545 97.7263 586.776 96.5514L585.994 98.3926ZM595.464 101.636C598.963 102.598 602.508 103.08 606.097 103.08V101.08C602.689 101.08 599.322 100.623 595.994 99.7078L595.464 101.636ZM606.097 103.08C609.92 103.08 612.933 102.479 614.972 101.12L613.862 99.4559C612.317 100.486 609.784 101.08 606.097 101.08V103.08ZM614.954 101.132C617.105 99.763 618.233 97.7886 618.233 95.296H616.233C616.233 97.07 615.484 98.4237 613.88 99.4443L614.954 101.132ZM618.233 95.296C618.233 92.6472 617.075 90.5432 614.835 89.0824L613.743 90.7576C615.428 91.8568 616.233 93.3368 616.233 95.296H618.233ZM614.852 89.0938C612.861 87.7358 610.154 86.5478 606.775 85.5082L606.187 87.4198C609.464 88.4282 611.963 89.5442 613.726 90.7462L614.852 89.0938ZM606.782 85.5104C603.534 84.4846 599.774 83.3312 595.504 82.0502L594.93 83.9658C599.193 85.2448 602.943 86.3954 606.18 87.4176L606.782 85.5104ZM595.511 82.0522C590.013 80.3604 585.48 78.4675 581.896 76.3835L580.89 78.1125C584.645 80.2952 589.328 82.2423 594.923 83.9638L595.511 82.0522ZM581.904 76.3887C578.441 74.327 575.886 71.8382 574.193 68.9361L572.465 69.9439C574.356 73.1858 577.177 75.9023 580.882 78.1073L581.904 76.3887ZM574.203 68.9544C572.601 66.0701 571.769 62.4093 571.769 57.92H569.769C569.769 62.6467 570.644 66.6659 572.455 69.9256L574.203 68.9544ZM571.769 57.92C571.769 51.6784 573.224 46.5107 576.074 42.3578L574.424 41.2262C571.301 45.7773 569.769 51.3616 569.769 57.92H571.769ZM576.071 42.3612C579.033 38.0827 582.98 34.8727 587.935 32.7256L587.139 30.8904C581.854 33.1807 577.609 36.6266 574.427 41.2228L576.071 42.3612ZM587.947 32.7199C592.928 30.4785 598.376 29.352 604.305 29.352V27.352C598.116 27.352 592.386 28.5295 587.127 30.8961L587.947 32.7199ZM604.305 29.352C608.491 29.352 612.502 29.8542 616.341 30.8556L616.845 28.9204C612.834 27.8738 608.652 27.352 604.305 27.352V29.352ZM616.346 30.8569C620.306 31.8681 623.963 33.1299 627.319 34.6399L628.139 32.8161C624.668 31.2541 620.901 29.9559 616.84 28.9191L616.346 30.8569ZM627.327 34.6436C630.802 36.1692 633.886 37.6907 636.583 39.2076L637.563 37.4644C634.799 35.9092 631.654 34.3588 628.131 32.8124L627.327 34.6436ZM636.189 37.8681L626.973 55.2761L628.741 56.2119L637.957 38.8039L636.189 37.8681Z" fill="white"/>
</svg>
