<svg xmlns="http://www.w3.org/2000/svg" fill="none" viewBox="-0.59 -0.27 234.89 36.56">
<path d="M0.408 35H-0.592V36H0.408V35ZM0.408 0.919998V-0.0800018H-0.592V0.919998H0.408ZM28.776 0.919998H29.776V-0.0800018H28.776V0.919998ZM28.776 35V36H29.776V35H28.776ZM20.904 35H19.904V36H20.904V35ZM20.904 7.832H21.904V6.832H20.904V7.832ZM8.28 7.832V6.832H7.28V7.832H8.28ZM8.28 35V36H9.28V35H8.28ZM1.408 35V0.919998H-0.592V35H1.408ZM0.408 1.92H28.776V-0.0800018H0.408V1.92ZM27.776 0.919998V35H29.776V0.919998H27.776ZM28.776 34H20.904V36H28.776V34ZM21.904 35V7.832H19.904V35H21.904ZM20.904 6.832H8.28V8.832H20.904V6.832ZM7.28 7.832V35H9.28V7.832H7.28ZM8.28 34H0.408V36H8.28V34ZM35.4671 35H34.4671V36H35.4671V35ZM35.4671 0.919998V-0.0800018H34.4671V0.919998H35.4671ZM54.4751 1.928L54.0279 2.82243L54.0406 2.82875L54.0534 2.83472L54.4751 1.928ZM58.0271 4.568L57.2785 5.23104L57.2833 5.23643L57.2882 5.24175L58.0271 4.568ZM60.3311 8.264L61.2611 7.89634L60.3311 8.264ZM59.7551 18.056L58.8706 17.5896L58.8672 17.5959L58.864 17.6023L59.7551 18.056ZM55.9631 22.376L56.5254 23.2029L56.529 23.2005L55.9631 22.376ZM43.3391 24.008V23.008H42.3391V24.008H43.3391ZM43.3391 35V36H44.3391V35H43.3391ZM43.3391 17.144H42.3391V18.144H43.3391V17.144ZM52.6991 15.032L53.6095 15.4458L52.6991 15.032ZM52.6031 9.848L51.7087 10.2952L51.7211 10.32L51.7349 10.3441L52.6031 9.848ZM51.2111 8.312L50.7041 9.17393L50.7147 9.18017L50.7255 9.18615L51.2111 8.312ZM43.3391 7.832V6.832H42.3391V7.832H43.3391ZM36.4671 35V0.919998H34.4671V35H36.4671ZM35.4671 1.92H50.0111V-0.0800018H35.4671V1.92ZM50.0111 1.92C51.5015 1.92 52.8345 2.2257 54.0279 2.82243L54.9223 1.03357C53.4278 0.286299 51.7847 -0.0800018 50.0111 -0.0800018V1.92ZM54.0534 2.83472C55.3067 3.41765 56.3789 4.21535 57.2785 5.23104L58.7757 3.90496C57.6913 2.68065 56.3956 1.71835 54.8969 1.02128L54.0534 2.83472ZM57.2882 5.24175C58.1981 6.23969 58.9015 7.36786 59.4012 8.63166L61.2611 7.89634C60.6727 6.40814 59.8402 5.07231 58.7661 3.89425L57.2882 5.24175ZM59.4012 8.63166C59.9002 9.89389 60.1471 11.1774 60.1471 12.488H62.1471C62.1471 10.9186 61.8501 9.38611 61.2611 7.89634L59.4012 8.63166ZM60.1471 12.488C60.1471 14.2742 59.7243 15.9705 58.8706 17.5896L60.6397 18.5224C61.642 16.6215 62.1471 14.6058 62.1471 12.488H60.1471ZM58.864 17.6023C58.0439 19.2131 56.8919 20.5258 55.3973 21.5515L56.529 23.2005C58.2984 21.9862 59.6743 20.4189 60.6463 18.5097L58.864 17.6023ZM55.4008 21.5491C53.9893 22.5089 52.2878 23.008 50.2511 23.008V25.008C52.6304 25.008 54.737 24.4191 56.5254 23.2029L55.4008 21.5491ZM50.2511 23.008H43.3391V25.008H50.2511V23.008ZM42.3391 24.008V35H44.3391V24.008H42.3391ZM43.3391 34H35.4671V36H43.3391V34ZM43.3391 18.144H49.7711V16.144H43.3391V18.144ZM49.7711 18.144C50.5861 18.144 51.3429 17.904 52.0177 17.44L50.8846 15.792C50.5354 16.032 50.1722 16.144 49.7711 16.144V18.144ZM52.0177 17.44C52.712 16.9627 53.2326 16.2751 53.6095 15.4458L51.7888 14.6182C51.5257 15.1969 51.2142 15.5653 50.8846 15.792L52.0177 17.44ZM53.6095 15.4458C54.0044 14.577 54.1791 13.5627 54.1791 12.44H52.1791C52.1791 13.3653 52.0338 14.079 51.7888 14.6182L53.6095 15.4458ZM54.1791 12.44C54.1791 11.2707 53.9675 10.2202 53.4714 9.35186L51.7349 10.3441C52.0067 10.8198 52.1791 11.4973 52.1791 12.44H54.1791ZM53.4976 9.40078C53.0733 8.55227 52.4809 7.87347 51.6968 7.43784L50.7255 9.18615C51.0934 9.39053 51.429 9.73573 51.7087 10.2952L53.4976 9.40078ZM51.7181 7.45006C51.0266 7.04326 50.2764 6.832 49.4831 6.832V8.832C49.9059 8.832 50.3077 8.94073 50.7041 9.17393L51.7181 7.45006ZM49.4831 6.832H43.3391V8.832H49.4831V6.832ZM42.3391 7.832V17.144H44.3391V7.832H42.3391ZM73.3414 33.848L72.9054 34.748L72.9138 34.752L72.9223 34.756L73.3414 33.848ZM68.0134 29.912L67.2644 30.5746L67.2711 30.5822L67.278 30.5897L68.0134 29.912ZM64.6054 24.344L63.672 24.703L63.6739 24.7079L64.6054 24.344ZM64.6534 11.432L63.7319 11.0433L63.7269 11.0556L64.6534 11.432ZM68.2054 5.96L67.4772 5.27463L67.4767 5.27509L68.2054 5.96ZM73.6294 2.12L73.2219 1.20677L73.6294 2.12ZM87.3094 2.216L86.8735 3.11598L86.8818 3.12005L86.8903 3.12396L87.3094 2.216ZM92.6374 6.152L91.8883 6.81461L91.8955 6.82254L92.6374 6.152ZM96.0934 11.768L95.16 12.127L95.1619 12.1318L96.0934 11.768ZM96.0454 24.536L95.1189 24.1596L96.0454 24.536ZM92.4934 30.056L93.2148 30.7486L93.2216 30.7414L92.4934 30.056ZM87.0694 33.896L87.4821 34.8069L87.4884 34.804L87.0694 33.896ZM71.9974 21.848L71.0416 22.1421L71.0438 22.1491L71.9974 21.848ZM73.6774 25.112L72.8838 25.7204L72.8901 25.7286L72.8965 25.7367L73.6774 25.112ZM84.2854 27.416L84.7427 28.3053L84.7527 28.3002L84.7625 28.2949L84.2854 27.416ZM87.0694 25.016L87.8725 25.6118L87.0694 25.016ZM88.7014 21.704L87.7456 21.4099L87.7431 21.4179L87.7408 21.4259L88.7014 21.704ZM88.7014 14.12L87.7478 14.4211V14.4211L88.7014 14.12ZM86.9734 10.856L86.1826 11.4682L86.1875 11.4745L86.1925 11.4807L86.9734 10.856ZM84.1414 8.552L83.7045 9.45151V9.45151L84.1414 8.552ZM76.4134 8.6L75.956 7.71065L75.9455 7.71621L76.4134 8.6ZM73.6294 10.952L72.8386 10.3398L72.8358 10.3436L73.6294 10.952ZM71.9494 14.264L70.9936 13.9699L70.9911 13.9779L70.9888 13.9859L71.9494 14.264ZM80.3014 34.288C77.869 34.288 75.6944 33.8326 73.7604 32.94L72.9223 34.756C75.1484 35.7834 77.6138 36.288 80.3014 36.288V34.288ZM73.7773 32.948C71.8392 32.0093 70.1656 30.7717 68.7487 29.2343L67.278 30.5897C68.8692 32.3163 70.7475 33.7027 72.9054 34.748L73.7773 32.948ZM68.7624 29.2494C67.3675 27.6726 66.2936 25.9175 65.5368 23.9801L63.6739 24.7079C64.5172 26.8665 65.7153 28.8234 67.2644 30.5746L68.7624 29.2494ZM65.5387 23.985C64.7824 22.0185 64.4054 19.9961 64.4054 17.912H62.4054C62.4054 20.2439 62.8284 22.5095 63.672 24.703L65.5387 23.985ZM64.4054 17.912C64.4054 15.7654 64.7978 13.7335 65.5798 11.8084L63.7269 11.0556C62.845 13.2265 62.4054 15.5146 62.4054 17.912H64.4054ZM65.5747 11.8207C66.3932 9.88073 67.5123 8.15732 68.934 6.64491L67.4767 5.27509C65.8904 6.96268 64.6416 8.88727 63.732 11.0433L65.5747 11.8207ZM68.9336 6.64536C70.3773 5.11141 72.0758 3.90817 74.0368 3.03323L73.2219 1.20677C71.023 2.18783 69.1055 3.54459 67.4772 5.27463L68.9336 6.64536ZM74.0368 3.03323C75.9784 2.16699 78.1101 1.728 80.4454 1.728V-0.272002C77.8526 -0.272002 75.4404 0.217004 73.2219 1.20677L74.0368 3.03323ZM80.4454 1.728C82.8393 1.728 84.9758 2.1968 86.8735 3.11598L87.7453 1.31602C85.547 0.251193 83.1075 -0.272002 80.4454 -0.272002V1.728ZM86.8903 3.12396C88.8485 4.02775 90.5111 5.2576 91.8884 6.81457L93.3864 5.48943C91.8197 3.71839 89.9302 2.32424 87.7284 1.30804L86.8903 3.12396ZM91.8955 6.82254C93.3176 8.39594 94.4044 10.1625 95.16 12.127L97.0267 11.409C96.1823 9.21352 94.9651 7.23606 93.3792 5.48146L91.8955 6.82254ZM95.1619 12.1318C95.9178 14.0669 96.2934 16.0397 96.2934 18.056H98.2934C98.2934 15.7843 97.8689 13.5651 97.0248 11.4041L95.1619 12.1318ZM96.2934 18.056C96.2934 20.2026 95.901 22.2345 95.1189 24.1596L96.9718 24.9124C97.8538 22.7415 98.2934 20.4534 98.2934 18.056H96.2934ZM95.1189 24.1596C94.334 26.0917 93.2178 27.8272 91.7652 29.3706L93.2216 30.7414C94.841 29.0208 96.0927 27.0763 96.9718 24.9124L95.1189 24.1596ZM91.772 29.3635C90.3253 30.8705 88.6208 32.0786 86.6503 32.988L87.4884 34.804C89.678 33.7934 91.5895 32.4415 93.2148 30.7485L91.772 29.3635ZM86.6566 32.9851C84.7503 33.849 82.6368 34.288 80.3014 34.288V36.288C82.8939 36.288 85.2924 35.799 87.4821 34.8069L86.6566 32.9851ZM70.4214 18.008C70.4214 19.4192 70.6281 20.7983 71.0416 22.1421L72.9532 21.5539C72.5986 20.4017 72.4214 19.2208 72.4214 18.008H70.4214ZM71.0438 22.1491C71.4609 23.47 72.0732 24.6632 72.8838 25.7204L74.471 24.5036C73.8095 23.6408 73.3018 22.658 72.951 21.5469L71.0438 22.1491ZM72.8965 25.7367C73.7547 26.8094 74.8099 27.6665 76.052 28.3053L76.9667 26.5267C75.9688 26.0135 75.1361 25.3346 74.4582 24.4873L72.8965 25.7367ZM76.052 28.3053C77.3326 28.9639 78.7732 29.28 80.3494 29.28V27.28C79.0455 27.28 77.9262 27.0201 76.9667 26.5267L76.052 28.3053ZM80.3494 29.28C81.9818 29.28 83.4563 28.9669 84.7427 28.3053L83.828 26.5267C82.8745 27.0171 81.725 27.28 80.3494 27.28V29.28ZM84.7625 28.2949C86.0063 27.6196 87.0469 26.7245 87.8725 25.6118L86.2663 24.4202C85.6198 25.2915 84.8045 25.9964 83.8083 26.5371L84.7625 28.2949ZM87.8725 25.6118C88.6813 24.5218 89.2776 23.3096 89.6619 21.9821L87.7408 21.4259C87.4211 22.5304 86.9295 23.5262 86.2663 24.4202L87.8725 25.6118ZM89.6572 21.9981C90.0699 20.6567 90.2774 19.2937 90.2774 17.912H88.2774C88.2774 19.0903 88.1009 20.2553 87.7456 21.4099L89.6572 21.9981ZM90.2774 17.912C90.2774 16.5008 90.0706 15.1351 89.655 13.8189L87.7478 14.4211C88.1001 15.5369 88.2774 16.6992 88.2774 17.912H90.2774ZM89.655 13.8189C89.2352 12.4897 88.6021 11.2912 87.7542 10.2313L86.1925 11.4807C86.8806 12.3408 87.3995 13.3183 87.7478 14.4211L89.655 13.8189ZM87.7641 10.2438C86.9026 9.13104 85.8379 8.26428 84.5783 7.65249L83.7045 9.45151C84.6849 9.92772 85.5082 10.597 86.1826 11.4682L87.7641 10.2438ZM84.5783 7.65249C83.3053 7.03418 81.8888 6.736 80.3494 6.736V8.736C81.6259 8.736 82.7375 8.98182 83.7045 9.45151L84.5783 7.65249ZM80.3494 6.736C78.717 6.736 77.2425 7.04911 75.956 7.71071L76.8707 9.48929C77.8243 8.99889 78.9738 8.736 80.3494 8.736V6.736ZM75.9455 7.71621C74.7293 8.36006 73.692 9.23757 72.8387 10.3398L74.4201 11.5642C75.1027 10.6824 75.9214 9.99194 76.8813 9.48379L75.9455 7.71621ZM72.8358 10.3436C72.0219 11.4051 71.4098 12.6174 70.9936 13.9699L72.9052 14.5581C73.257 13.4146 73.7648 12.4189 74.423 11.5604L72.8358 10.3436ZM70.9888 13.9859C70.6104 15.2933 70.4214 16.635 70.4214 18.008H72.4214C72.4214 16.821 72.5844 15.6667 72.9099 14.5421L70.9888 13.9859ZM125.794 28.088H126.794V27.088H125.794V28.088ZM125.794 35V36H126.794V35H125.794ZM101.842 35H100.842V36H101.842V35ZM101.842 0.919998V-0.0800018H100.842V0.919998H101.842ZM125.362 0.919998H126.362V-0.0800018H125.362V0.919998ZM125.362 7.832V8.832H126.362V7.832H125.362ZM109.714 7.832V6.832H108.714V7.832H109.714ZM109.714 14.456H108.714V15.456H109.714V14.456ZM123.154 14.456H124.154V13.456H123.154V14.456ZM123.154 20.84V21.84H124.154V20.84H123.154ZM109.714 20.84V19.84H108.714V20.84H109.714ZM109.714 28.088H108.714V29.088H109.714V28.088ZM124.794 28.088V35H126.794V28.088H124.794ZM125.794 34H101.842V36H125.794V34ZM102.842 35V0.919998H100.842V35H102.842ZM101.842 1.92H125.362V-0.0800018H101.842V1.92ZM124.362 0.919998V7.832H126.362V0.919998H124.362ZM125.362 6.832H109.714V8.832H125.362V6.832ZM108.714 7.832V14.456H110.714V7.832H108.714ZM109.714 15.456H123.154V13.456H109.714V15.456ZM122.154 14.456V20.84H124.154V14.456H122.154ZM123.154 19.84H109.714V21.84H123.154V19.84ZM108.714 20.84V28.088H110.714V20.84H108.714ZM109.714 29.088H125.794V27.088H109.714V29.088ZM130.721 35H129.721V36H130.721V35ZM130.721 0.919998V-0.0800018H129.721V0.919998H130.721ZM138.544 0.919998H139.544V-0.0800018H138.544V0.919998ZM138.544 14.12H137.544V15.12H138.544V14.12ZM141.232 14.12V15.12H141.745L142.044 14.7043L141.232 14.12ZM150.736 0.919998V-0.0800018H150.224L149.925 0.335693L150.736 0.919998ZM159.473 0.919998L160.276 1.51511L161.457 -0.0800018H159.473V0.919998ZM147.281 17.384L146.477 16.7889L146.033 17.3886L146.481 17.985L147.281 17.384ZM160.529 35V36H162.532L161.328 34.399L160.529 35ZM150.977 35L150.168 35.5882L150.467 36H150.977V35ZM140.993 21.272L141.801 20.6838L141.502 20.272H140.993V21.272ZM138.544 21.272V20.272H137.544V21.272H138.544ZM138.544 35V36H139.544V35H138.544ZM131.721 35V0.919998H129.721V35H131.721ZM130.721 1.92H138.544V-0.0800018H130.721V1.92ZM137.544 0.919998V14.12H139.544V0.919998H137.544ZM138.544 15.12H141.232V13.12H138.544V15.12ZM142.044 14.7043L151.548 1.5043L149.925 0.335693L140.421 13.5357L142.044 14.7043ZM150.736 1.92H159.473V-0.0800018H150.736V1.92ZM158.669 0.324883L146.477 16.7889L148.084 17.9791L160.276 1.51511L158.669 0.324883ZM146.481 17.985L159.729 35.601L161.328 34.399L148.08 16.783L146.481 17.985ZM160.529 34H150.977V36H160.529V34ZM151.785 34.4118L141.801 20.6838L140.184 21.8602L150.168 35.5882L151.785 34.4118ZM140.993 20.272H138.544V22.272H140.993V20.272ZM137.544 21.272V35H139.544V21.272H137.544ZM138.544 34H130.721V36H138.544V34ZM190.576 7.832V8.832H191.576V7.832H190.576ZM180.208 7.832V6.832H179.208V7.832H180.208ZM180.208 35V36H181.208V35H180.208ZM172.336 35H171.336V36H172.336V35ZM172.336 7.832H173.336V6.832H172.336V7.832ZM161.92 7.832H160.92V8.832H161.92V7.832ZM161.92 0.919998V-0.0800018H160.92V0.919998H161.92ZM190.576 0.919998H191.576V-0.0800018H190.576V0.919998ZM190.576 6.832H180.208V8.832H190.576V6.832ZM179.208 7.832V35H181.208V7.832H179.208ZM180.208 34H172.336V36H180.208V34ZM173.336 35V7.832H171.336V35H173.336ZM172.336 6.832H161.92V8.832H172.336V6.832ZM162.92 7.832V0.919998H160.92V7.832H162.92ZM161.92 1.92H190.576V-0.0800018H161.92V1.92ZM189.576 0.919998V7.832H191.576V0.919998H189.576ZM194.42 35H193.42V36H194.42V35ZM194.42 0.919998V-0.0800018H193.42V0.919998H194.42ZM202.292 0.919998H203.292V-0.0800018H202.292V0.919998ZM202.292 12.68H201.292V13.68H202.292V12.68ZM215.108 14.024L214.661 14.9184L215.108 14.024ZM219.236 17.864L220.102 17.3643L219.236 17.864ZM219.284 29.672L218.407 29.192L218.403 29.1984L218.4 29.2049L219.284 29.672ZM215.3 33.608L214.834 32.7234L214.827 32.727L215.3 33.608ZM202.292 28.568H201.292V29.568H202.292V28.568ZM210.596 27.944L210.088 27.0831L210.079 27.0883L210.07 27.0937L210.596 27.944ZM212.132 26.216L211.23 25.7845L211.222 25.8008L211.215 25.8173L212.132 26.216ZM212.132 21.464L211.222 21.8778L211.23 21.8947L211.238 21.9112L212.132 21.464ZM210.596 19.784L210.042 20.6161L210.064 20.6311L210.088 20.6449L210.596 19.784ZM202.292 19.112V18.112H201.292V19.112H202.292ZM225.428 35H224.428V36H225.428V35ZM225.428 0.919998V-0.0800018H224.428V0.919998H225.428ZM233.3 0.919998H234.3V-0.0800018H233.3V0.919998ZM233.3 35V36H234.3V35H233.3ZM195.42 35V0.919998H193.42V35H195.42ZM194.42 1.92H202.292V-0.0800018H194.42V1.92ZM201.292 0.919998V12.68H203.292V0.919998H201.292ZM202.292 13.68H208.628V11.68H202.292V13.68ZM208.628 13.68C211.041 13.68 213.039 14.1076 214.661 14.9184L215.555 13.1296C213.593 12.1484 211.272 11.68 208.628 11.68V13.68ZM214.661 14.9184C216.286 15.7307 217.512 16.877 218.37 18.3637L220.102 17.3643C219.04 15.523 217.515 14.1093 215.555 13.1296L214.661 14.9184ZM218.37 18.3637C219.228 19.8501 219.676 21.6392 219.676 23.768H221.676C221.676 21.3528 221.165 19.2059 220.102 17.3643L218.37 18.3637ZM219.676 23.768C219.676 25.867 219.243 27.665 218.407 29.192L220.162 30.152C221.182 28.287 221.676 26.149 221.676 23.768H219.676ZM218.4 29.2049C217.602 30.7159 216.423 31.8856 214.834 32.7234L215.767 34.4926C217.698 33.4744 219.175 32.0201 220.168 30.1391L218.4 29.2049ZM214.827 32.727C213.275 33.5603 211.366 34 209.06 34V36C211.618 36 213.869 35.5117 215.773 34.489L214.827 32.727ZM209.06 34H194.42V36H209.06V34ZM202.292 29.568H207.956V27.568H202.292V29.568ZM207.956 29.568C209.163 29.568 210.244 29.3384 211.123 28.7943L210.07 27.0937C209.605 27.3816 208.926 27.568 207.956 27.568V29.568ZM211.105 28.8049C211.987 28.2839 212.644 27.5478 213.049 26.6147L211.215 25.8173C210.981 26.3562 210.614 26.7721 210.088 27.0831L211.105 28.8049ZM213.034 26.6475C213.457 25.764 213.66 24.7985 213.66 23.768H211.66C211.66 24.5295 211.512 25.196 211.23 25.7845L213.034 26.6475ZM213.66 23.768C213.66 22.7898 213.452 21.8676 213.027 21.0168L211.238 21.9112C211.516 22.4684 211.66 23.0821 211.66 23.768H213.66ZM213.043 21.0502C212.633 20.1485 211.975 19.4371 211.105 18.9231L210.088 20.6449C210.626 20.9629 210.992 21.3715 211.222 21.8778L213.043 21.0502ZM211.151 18.952C210.262 18.3596 209.152 18.112 207.908 18.112V20.112C208.905 20.112 209.586 20.3124 210.042 20.6161L211.151 18.952ZM207.908 18.112H202.292V20.112H207.908V18.112ZM201.292 19.112V28.568H203.292V19.112H201.292ZM226.428 35V0.919998H224.428V35H226.428ZM225.428 1.92H233.3V-0.0800018H225.428V1.92ZM232.3 0.919998V35H234.3V0.919998H232.3ZM233.3 34H225.428V36H233.3V34Z" fill="white"/>
</svg>