<svg width="16" height="16" viewBox="0 0 16 16" fill="none" xmlns="http://www.w3.org/2000/svg">
<path d="M6.55462 13.0818C2.95798 13.0818 0 10.1635 0 6.54088C0 2.95178 2.92437 0 6.55462 0C10.1849 0 13.1092 2.91824 13.1092 6.54088C13.0756 10.1635 10.1513 13.0818 6.55462 13.0818ZM6.55462 0.972744C3.46219 0.972744 0.941176 3.48847 0.941176 6.57442C0.941176 9.66038 3.46219 12.1761 6.55462 12.1761C9.64706 12.1761 12.1681 9.66038 12.1681 6.57442C12.1345 3.48847 9.61345 0.972744 6.55462 0.972744Z" fill="black"/>
<path d="M15.2941 15.9999L10.7227 11.4716L11.4622 10.7336L16 15.2955L15.2941 15.9999Z" fill="black"/>
</svg>
