<svg xmlns="http://www.w3.org/2000/svg" fill="none" viewBox="-0.56 -0.6 21.68 94.64">
<path d="M0.0400004 0H-0.559999V-0.599998H0.0400004V0ZM0.0400004 67.2V67.8H-0.559999V67.2H0.0400004ZM20.52 67.2H21.12V67.8H20.52V67.2ZM20.52 0V-0.599998H21.12V0H20.52ZM0.0400004 74.88H-0.559999V74.28H0.0400004V74.88ZM0.0400004 93.44V94.04H-0.559999V93.44H0.0400004ZM20.52 93.44H21.12V94.04H20.52V93.44ZM20.52 74.88V74.28H21.12V74.88H20.52ZM0.64 0L0.64 67.2H-0.559999L-0.559999 0H0.64ZM0.0400004 66.6H20.52V67.8H0.0400004V66.6ZM19.92 67.2L19.92 0H21.12L21.12 67.2H19.92ZM20.52 0.599998H0.0400004V-0.599998H20.52V0.599998ZM0.64 74.88L0.64 93.44H-0.559999L-0.559999 74.88H0.64ZM0.0400004 92.84H20.52V94.04H0.0400004V92.84ZM19.92 93.44V74.88H21.12V93.44H19.92ZM20.52 75.48H0.0400004V74.28H20.52V75.48Z" fill="white"/>
</svg>