<svg width="190" height="190" viewBox="0 0 190 190" fill="none" xmlns="http://www.w3.org/2000/svg">
<circle cx="95" cy="95" r="94.5" stroke="white"/>
<path d="M83.8328 9H83.2328V8.39999H83.8328V9ZM83.8328 82.5V83.1H83.2328V82.5H83.8328ZM106.233 82.5H106.833V83.1H106.233V82.5ZM106.233 9V8.39999H106.833V9H106.233ZM83.8328 90.9H83.2328V90.3H83.8328V90.9ZM83.8328 111.2V111.8H83.2328V111.2H83.8328ZM106.233 111.2H106.833V111.8H106.233V111.2ZM106.233 90.9V90.3H106.833V90.9H106.233ZM84.4328 9V82.5H83.2328V9H84.4328ZM83.8328 81.9H106.233V83.1H83.8328V81.9ZM105.633 82.5V9H106.833V82.5H105.633ZM106.233 9.60001H83.8328V8.39999H106.233V9.60001ZM84.4328 90.9V111.2H83.2328V90.9H84.4328ZM83.8328 110.6H106.233V111.8H83.8328V110.6ZM105.633 111.2V90.9H106.833V111.2H105.633ZM106.233 91.5H83.8328V90.3H106.233V91.5Z" fill="white"/>
</svg>
