<svg xmlns="http://www.w3.org/2000/svg" fill="none" viewBox="3.3 68.7 693.21 220.6">
<path d="M182.7 112.2V112.5H183V112.2H182.7ZM117.9 112.2V111.9H117.6V112.2H117.9ZM117.9 282V282.3H118.2V282H117.9ZM68.7 282H68.4V282.3H68.7V282ZM68.7 112.2H69V111.9H68.7V112.2ZM3.6 112.2H3.3V112.5H3.6V112.2ZM3.6 69V68.7H3.3V69H3.6ZM182.7 69H183V68.7H182.7V69ZM182.7 111.9H117.9V112.5H182.7V111.9ZM117.6 112.2V282H118.2V112.2H117.6ZM117.9 281.7H68.7V282.3H117.9V281.7ZM69 282V112.2H68.4V282H69ZM68.7 111.9H3.6V112.5H68.7V111.9ZM3.9 112.2V69H3.3V112.2H3.9ZM3.6 69.3H182.7V68.7H3.6V69.3ZM182.4 69V112.2H183V69H182.4Z" fill="#005147"/>
<path d="M465.4 282H465.1V282.3H465.4V282ZM465.4 155.1H465.7L465.131 154.967L465.4 155.1ZM419.5 247.5V247.8H419.686L419.769 247.633L419.5 247.5ZM392.5 247.5L392.231 247.633L392.314 247.8H392.5V247.5ZM346.6 155.1L346.869 154.967L346.3 155.1H346.6ZM346.6 282V282.3H346.9V282H346.6ZM297.4 282H297.1V282.3H297.4V282ZM297.4 69V68.7H297.1V69H297.4ZM350.8 69L351.069 68.8667L350.986 68.7H350.8V69ZM406 180.3L405.731 180.433L405.999 180.974L406.268 180.434L406 180.3ZM461.5 69V68.7H461.314L461.232 68.8661L461.5 69ZM514.6 69H514.9V68.7H514.6V69ZM514.6 282V282.3H514.9V282H514.6ZM465.7 282V155.1H465.1V282H465.7ZM465.131 154.967L419.231 247.367L419.769 247.633L465.669 155.233L465.131 154.967ZM419.5 247.2H392.5V247.8H419.5V247.2ZM392.769 247.367L346.869 154.967L346.331 155.233L392.231 247.633L392.769 247.367ZM346.3 155.1V282H346.9V155.1H346.3ZM346.6 281.7H297.4V282.3H346.6V281.7ZM297.7 282V69H297.1V282H297.7ZM297.4 69.3H350.8V68.7H297.4V69.3ZM350.531 69.1333L405.731 180.433L406.269 180.167L351.069 68.8667L350.531 69.1333ZM406.268 180.434L461.768 69.1339L461.232 68.8661L405.732 180.166L406.268 180.434ZM461.5 69.3H514.6V68.7H461.5V69.3ZM514.3 69V282H514.9V69H514.3ZM514.6 281.7H465.4V282.3H514.6V281.7ZM696.205 238.8H696.505V238.5H696.205V238.8ZM696.205 282V282.3H696.505V282H696.205ZM546.505 282H546.205V282.3H546.505V282ZM546.505 69V68.7H546.205V69H546.505ZM693.505 69H693.805V68.7H693.505V69ZM693.505 112.2V112.5H693.805V112.2H693.505ZM595.705 112.2V111.9H595.405V112.2H595.705ZM595.705 153.6H595.405V153.9H595.705V153.6ZM679.705 153.6H680.005V153.3H679.705V153.6ZM679.705 193.5V193.8H680.005V193.5H679.705ZM595.705 193.5V193.2H595.405V193.5H595.705ZM595.705 238.8H595.405V239.1H595.705V238.8ZM695.905 238.8V282H696.505V238.8H695.905ZM696.205 281.7H546.505V282.3H696.205V281.7ZM546.805 282V69H546.205V282H546.805ZM546.505 69.3H693.505V68.7H546.505V69.3ZM693.205 69V112.2H693.805V69H693.205ZM693.505 111.9H595.705V112.5H693.505V111.9ZM595.405 112.2V153.6H596.005V112.2H595.405ZM595.705 153.9H679.705V153.3H595.705V153.9ZM679.405 153.6V193.5H680.005V153.6H679.405ZM679.705 193.2H595.705V193.8H679.705V193.2ZM595.405 193.5V238.8H596.005V193.5H595.405ZM595.705 239.1H696.205V238.5H595.705V239.1Z" fill="#005147"/>
<path d="M212.5 70H212.2V69.7H212.5V70ZM212.5 227.5V227.8H212.2V227.5H212.5ZM260.5 227.5H260.8V227.8H260.5V227.5ZM260.5 70V69.7H260.8V70H260.5ZM212.5 245.5H212.2V245.2H212.5V245.5ZM212.5 289V289.3H212.2V289H212.5ZM260.5 289H260.8V289.3H260.5V289ZM260.5 245.5V245.2H260.8V245.5H260.5ZM212.8 70V227.5H212.2V70H212.8ZM212.5 227.2H260.5V227.8H212.5V227.2ZM260.2 227.5V70H260.8V227.5H260.2ZM260.5 70.3H212.5V69.7H260.5V70.3ZM212.8 245.5V289H212.2V245.5H212.8ZM212.5 288.7H260.5V289.3H212.5V288.7ZM260.2 289V245.5H260.8V289H260.2ZM260.5 245.8H212.5V245.2H260.5V245.8Z" fill="#005147"/>
</svg>