<svg xmlns="http://www.w3.org/2000/svg" fill="none" viewBox="-0.16 -0.09 33.4 19.59">
<path d="M14.808 14.392H15.308V13.892H14.808V14.392ZM14.808 19V19.5H15.308V19H14.808ZM0.984 19H0.484V19.5H0.984V19ZM0.984 14.392V13.892H0.484V14.392H0.984ZM5.528 14.392V14.892H6.028V14.392H5.528ZM5.528 6.232H6.028V4.732L5.128 5.932L5.528 6.232ZM4.632 7L4.365 6.57726H4.365L4.632 7ZM3.256 7.736L3.04765 7.28141L3.04027 7.28493L3.256 7.736ZM1.752 8.312L1.87327 8.79707L1.88268 8.79472L1.892 8.792L1.752 8.312ZM0.344 8.504H-0.156V9.004H0.344V8.504ZM0.344 3.768V3.268H-0.156V3.768H0.344ZM1.688 3.448L1.8737 3.91224L1.88159 3.90908L1.88937 3.90566L1.688 3.448ZM3.288 2.584L3.02591 2.1581L3.01847 2.16286L3.288 2.584ZM4.728 1.56L4.41555 1.16944L4.40593 1.17754L4.728 1.56ZM5.528 0.727999V0.227999H5.21898L5.08079 0.504392L5.528 0.727999ZM10.744 0.727999H11.244V0.227999H10.744V0.727999ZM10.744 14.392H10.244V14.892H10.744V14.392ZM14.308 14.392V19H15.308V14.392H14.308ZM14.808 18.5H0.984V19.5H14.808V18.5ZM1.484 19V14.392H0.484V19H1.484ZM0.984 14.892H5.528V13.892H0.984V14.892ZM6.028 14.392V6.232H5.028V14.392H6.028ZM5.128 5.932C4.98593 6.12143 4.74202 6.33914 4.365 6.57726L4.899 7.42274C5.33265 7.14886 5.68607 6.85457 5.928 6.532L5.128 5.932ZM4.365 6.57726C3.98141 6.81952 3.54283 7.05452 3.04767 7.28147L3.46433 8.19053C3.99317 7.94814 4.47192 7.69248 4.899 7.42274L4.365 6.57726ZM3.04027 7.28493C2.57354 7.50815 2.09751 7.69039 1.612 7.832L1.892 8.792C2.43049 8.63494 2.95713 8.43318 3.47173 8.18707L3.04027 7.28493ZM1.63073 7.82693C1.14945 7.94725 0.721492 8.004 0.344 8.004V9.004C0.819842 9.004 1.33055 8.93275 1.87327 8.79707L1.63073 7.82693ZM0.844 8.504V3.768H-0.156V8.504H0.844ZM0.344 4.268C0.79646 4.268 1.3118 4.137 1.8737 3.91224L1.5023 2.98376C0.997531 3.18567 0.616874 3.268 0.344 3.268V4.268ZM1.88937 3.90566C2.44826 3.65974 3.0043 3.3592 3.55753 3.00514L3.01847 2.16286C2.50503 2.49147 1.9944 2.76692 1.48663 2.99034L1.88937 3.90566ZM3.55005 3.00983C4.1212 2.65835 4.62213 2.30283 5.05007 1.94246L4.40593 1.17754C4.02321 1.49984 3.56413 1.82698 3.02595 2.15817L3.55005 3.00983ZM5.04035 1.95043C5.46881 1.60767 5.81512 1.27179 5.97521 0.951606L5.08079 0.504392C5.02755 0.610869 4.84053 0.829663 4.41565 1.16957L5.04035 1.95043ZM5.528 1.228H10.744V0.227999H5.528V1.228ZM10.244 0.727999V14.392H11.244V0.727999H10.244ZM10.744 14.892H14.808V13.892H10.744V14.892ZM16.6825 19H16.1825V19.5H16.6825V19ZM16.9065 16.312L16.4176 16.2063L16.4152 16.2191L16.9065 16.312ZM17.7065 14.168L17.2741 13.9169L17.2715 13.9215L17.7065 14.168ZM19.2105 12.344L19.5443 12.7163L19.545 12.7156L19.2105 12.344ZM21.6105 10.712L21.3757 10.2706L21.3752 10.2708L21.6105 10.712ZM24.1065 9.368L24.3469 9.80643L24.3516 9.80379L24.1065 9.368ZM25.7385 8.408L25.4715 7.98525L25.7385 8.408ZM26.5705 7.672L26.1544 7.39459L26.1487 7.40356L26.5705 7.672ZM25.7065 5.112L25.4936 5.56441L25.5047 5.56965L25.5161 5.57434L25.7065 5.112ZM23.1465 5.016L23.2803 5.49776L23.1465 5.016ZM22.0265 5.496L21.7729 5.06488L21.7615 5.072L22.0265 5.496ZM21.0345 6.264L21.362 6.64184L21.3689 6.63581L21.3757 6.62953L21.0345 6.264ZM20.0745 7.224L19.6946 7.54913L20.0688 7.98622L20.4494 7.55481L20.0745 7.224ZM16.8425 3.448L16.4889 3.09445L16.1618 3.42162L16.4626 3.77313L16.8425 3.448ZM18.2185 2.36L17.9521 1.93682L17.9449 1.94151L18.2185 2.36ZM20.1705 1.4L20.3491 1.86718L20.3609 1.86234L20.1705 1.4ZM22.5385 0.695999L22.6366 1.18637L22.6457 1.18437L22.5385 0.695999ZM29.1305 1.112L28.9256 1.56827L28.9369 1.57299L29.1305 1.112ZM31.5625 3.032L31.1465 3.30935L31.1465 3.30935L31.5625 3.032ZM32.0425 7.896L31.5819 7.70114L31.5783 7.7103L32.0425 7.896ZM31.1785 9.336L31.5595 9.65982V9.65982L31.1785 9.336ZM29.9305 10.488L29.6363 10.0835L29.6275 10.0903L29.9305 10.488ZM28.5865 11.416L28.8101 11.8632L28.8304 11.8531L28.8497 11.8411L28.5865 11.416ZM27.1465 12.184L27.3785 12.6269L27.3866 12.6227L27.3946 12.6181L27.1465 12.184ZM25.8985 12.888L26.1413 13.3251L26.1504 13.32L26.1592 13.3146L25.8985 12.888ZM24.8105 13.592L25.1062 13.9952L25.1105 13.992L24.8105 13.592ZM23.8825 14.392L23.5289 14.0384L22.6754 14.892H23.8825V14.392ZM32.7465 14.392H33.2465V13.892H32.7465V14.392ZM32.7465 19V19.5H33.2465V19H32.7465ZM17.1825 19C17.1825 18.0212 17.2555 17.1572 17.3978 16.4049L16.4152 16.2191C16.2589 17.0455 16.1825 17.9735 16.1825 19H17.1825ZM17.3952 16.4177C17.5562 15.6729 17.8061 15.0065 18.1415 14.4145L17.2715 13.9215C16.8816 14.6095 16.5981 15.3724 16.4178 16.2063L17.3952 16.4177ZM18.1389 14.4191C18.4944 13.8068 18.9613 13.239 19.5443 12.7163L18.8767 11.9717C18.2224 12.5584 17.6866 13.2065 17.2741 13.9169L18.1389 14.4191ZM19.545 12.7156C20.1482 12.1728 20.9126 11.6509 21.8458 11.1532L21.3752 10.2708C20.3884 10.7971 19.5528 11.3632 18.876 11.9724L19.545 12.7156ZM21.8453 11.1534C22.849 10.6195 23.683 10.1705 24.3469 9.80641L23.8661 8.92959C23.2073 9.29087 22.3773 9.73779 21.3757 10.2706L21.8453 11.1534ZM24.3516 9.80379C25.0377 9.41787 25.5899 9.0932 26.0055 8.83074L25.4715 7.98525C25.0764 8.2348 24.5406 8.55013 23.8614 8.93221L24.3516 9.80379ZM26.0055 8.83074C26.4343 8.55991 26.7845 8.26703 26.9923 7.94044L26.1487 7.40356C26.0578 7.5463 25.8533 7.74409 25.4715 7.98525L26.0055 8.83074ZM26.9865 7.94935C27.2102 7.61384 27.3265 7.24049 27.3265 6.84H26.3265C26.3265 7.03684 26.2721 7.21816 26.1545 7.39465L26.9865 7.94935ZM27.3265 6.84C27.3265 6.35273 27.21 5.90391 26.9591 5.51362L26.1179 6.05438C26.251 6.26142 26.3265 6.51661 26.3265 6.84H27.3265ZM26.9591 5.51362C26.706 5.11998 26.3438 4.83367 25.8969 4.64966L25.5161 5.57434C25.7946 5.68899 25.987 5.85069 26.1179 6.05438L26.9591 5.51362ZM25.9194 4.65959C25.4719 4.44902 24.9463 4.356 24.3625 4.356V5.356C24.8454 5.356 25.2157 5.43365 25.4936 5.56441L25.9194 4.65959ZM24.3625 4.356C23.8938 4.356 23.4432 4.41465 23.0127 4.53424L23.2803 5.49776C23.6178 5.40402 23.9779 5.356 24.3625 5.356V4.356ZM23.0127 4.53424C22.5845 4.65319 22.1711 4.83086 21.773 5.06503L22.28 5.92697C22.6073 5.73447 22.9405 5.59215 23.2803 5.49776L23.0127 4.53424ZM21.7615 5.072C21.3907 5.30374 21.0348 5.5798 20.6933 5.89847L21.3757 6.62953C21.6742 6.35086 21.9796 6.11493 22.2915 5.92L21.7615 5.072ZM20.707 5.88615C20.368 6.17997 20.0323 6.5161 19.6996 6.89319L20.4494 7.55481C20.7567 7.20656 21.061 6.90269 21.362 6.64184L20.707 5.88615ZM20.4544 6.89887L17.2224 3.12287L16.4626 3.77313L19.6946 7.54913L20.4544 6.89887ZM17.1961 3.80155C17.5285 3.46908 17.9584 3.12746 18.4921 2.77848L17.9449 1.94151C17.3693 2.31787 16.8818 2.70159 16.4889 3.09445L17.1961 3.80155ZM18.4849 2.78312C19.0296 2.44017 19.6502 2.13424 20.3491 1.86703L19.9919 0.932974C19.2401 1.22042 18.5594 1.55449 17.9521 1.93688L18.4849 2.78312ZM20.3609 1.86234C21.0534 1.57719 21.8114 1.35131 22.6366 1.18629L22.4404 0.205709C21.5589 0.382019 20.7383 0.625475 19.9801 0.93766L20.3609 1.86234ZM22.6457 1.18437C23.4835 1.00046 24.3542 0.907999 25.2585 0.907999V-0.092001C24.2855 -0.092001 23.3428 0.00753498 22.4313 0.207627L22.6457 1.18437ZM25.2585 0.907999C26.7467 0.907999 27.9627 1.13578 28.9257 1.56813L29.3353 0.655865C28.2076 0.14955 26.8423 -0.092001 25.2585 -0.092001V0.907999ZM28.9369 1.57299C29.9276 1.98908 30.6545 2.57132 31.1465 3.30935L31.9785 2.75465C31.3612 1.82868 30.4668 1.13092 29.3241 0.651009L28.9369 1.57299ZM31.1465 3.30935C31.6394 4.04878 31.8945 4.93071 31.8945 5.976H32.8945C32.8945 4.75996 32.5949 3.67922 31.9785 2.75465L31.1465 3.30935ZM31.8945 5.976C31.8945 6.64778 31.7859 7.21939 31.582 7.70118L32.503 8.09082C32.7685 7.46328 32.8945 6.75488 32.8945 5.976H31.8945ZM31.5783 7.7103C31.3845 8.1947 31.1242 8.62781 30.7975 9.01218L31.5595 9.65982C31.9581 9.19086 32.2738 8.66396 32.5067 8.0817L31.5783 7.7103ZM30.7975 9.01217C30.4614 9.40757 30.0749 9.76476 29.6364 10.0836L30.2246 10.8924C30.7248 10.5286 31.1702 10.1178 31.5595 9.65982L30.7975 9.01217ZM29.6275 10.0903C29.1914 10.4225 28.7567 10.7226 28.3233 10.9909L28.8497 11.8411C29.3123 11.5548 29.7736 11.2362 30.2335 10.8857L29.6275 10.0903ZM28.3629 10.9688C27.8435 11.2285 27.3553 11.4888 26.8984 11.7499L27.3946 12.6181C27.8337 12.3672 28.3055 12.1155 28.8101 11.8632L28.3629 10.9688ZM26.9145 11.7411C26.4579 11.9802 26.0322 12.2203 25.6378 12.4614L26.1592 13.3146C26.5328 13.0864 26.9391 12.8571 27.3785 12.6269L26.9145 11.7411ZM25.6557 12.4509C25.2524 12.675 24.8706 12.922 24.5105 13.192L25.1105 13.992C25.4331 13.75 25.7766 13.5277 26.1413 13.3251L25.6557 12.4509ZM24.5148 13.1888C24.173 13.4394 23.8445 13.7229 23.5289 14.0384L24.2361 14.7456C24.5179 14.4637 24.808 14.2139 25.1062 13.9952L24.5148 13.1888ZM23.8825 14.892H32.7465V13.892H23.8825V14.892ZM32.2465 14.392V19H33.2465V14.392H32.2465ZM32.7465 18.5H16.6825V19.5H32.7465V18.5Z" fill="white"/>
</svg>